<svg width="37" height="25" viewBox="0 0 37 25" fill="none" xmlns="http://www.w3.org/2000/svg">
<path d="M2.9446 24H-0.00994313L8.53551 0.727272H11.4446L19.9901 24H17.0355L10.081 4.40909H9.89915L2.9446 24ZM4.03551 14.9091H15.9446V17.4091H4.03551V14.9091ZM28.3878 24.4091C27.2817 24.4091 26.2779 24.2008 25.3764 23.7841C24.4749 23.3598 23.759 22.75 23.2287 21.9545C22.6984 21.1515 22.4332 20.1818 22.4332 19.0455C22.4332 18.0455 22.6302 17.2348 23.0241 16.6136C23.4181 15.9848 23.9446 15.4924 24.6037 15.1364C25.2628 14.7803 25.9901 14.5152 26.7855 14.3409C27.5885 14.1591 28.3954 14.0152 29.206 13.9091C30.2666 13.7727 31.1264 13.6705 31.7855 13.6023C32.4522 13.5265 32.937 13.4015 33.2401 13.2273C33.5507 13.053 33.706 12.75 33.706 12.3182V12.2273C33.706 11.1061 33.3991 10.2348 32.7855 9.61364C32.1795 8.99242 31.259 8.68182 30.0241 8.68182C28.7438 8.68182 27.7401 8.96212 27.0128 9.52273C26.2855 10.0833 25.7741 10.6818 25.4787 11.3182L22.9332 10.4091C23.3878 9.34848 23.9938 8.52273 24.7514 7.93182C25.5166 7.33333 26.3499 6.91667 27.2514 6.68182C28.1605 6.43939 29.0545 6.31818 29.9332 6.31818C30.4938 6.31818 31.1378 6.38636 31.8651 6.52273C32.5999 6.65151 33.3082 6.92045 33.9901 7.32954C34.6795 7.73864 35.2514 8.35606 35.706 9.18182C36.1605 10.0076 36.3878 11.1136 36.3878 12.5V24H33.706V21.6364H33.5696C33.3878 22.0152 33.0848 22.4205 32.6605 22.8523C32.2363 23.2841 31.6719 23.6515 30.9673 23.9545C30.2628 24.2576 29.4029 24.4091 28.3878 24.4091ZM28.7969 22C29.8575 22 30.7514 21.7917 31.4787 21.375C32.2135 20.9583 32.7666 20.4205 33.1378 19.7614C33.5166 19.1023 33.706 18.4091 33.706 17.6818V15.2273C33.5923 15.3636 33.3423 15.4886 32.956 15.6023C32.5772 15.7083 32.1378 15.803 31.6378 15.8864C31.1454 15.9621 30.6643 16.0303 30.1946 16.0909C29.7325 16.1439 29.3575 16.1894 29.0696 16.2273C28.3726 16.3182 27.7211 16.4659 27.1151 16.6705C26.5166 16.8674 26.0317 17.1667 25.6605 17.5682C25.2969 17.9621 25.1151 18.5 25.1151 19.1818C25.1151 20.1136 25.4598 20.8182 26.1491 21.2955C26.8461 21.7652 27.7287 22 28.7969 22Z" fill="#8D8D8D"/>
</svg>
