<svg width="150" height="279" viewBox="0 0 150 279" fill="none" xmlns="http://www.w3.org/2000/svg">
<path d="M124.146 163.331C125.726 159.13 127.305 154.928 128.885 150.726C130.734 145.798 128.42 140.228 125.1 136.583C124.354 135.76 123.606 134.948 122.86 134.125C120.521 131.558 115.941 129.718 112.463 129.875C108.984 130.032 106.204 130.977 103.559 132.999C97.9506 137.286 95.881 145.544 99.7757 151.743C101.245 154.08 102.518 156.49 103.62 159.021L102.138 155.545C103.302 158.282 104.355 161.127 104.834 164.07L104.307 160.207C104.454 161.358 104.49 162.459 104.343 163.61L104.87 159.747C104.747 160.377 104.587 160.97 104.355 161.575L105.837 158.1C105.567 158.682 105.249 159.202 104.857 159.723L107.161 156.78C106.756 157.253 106.328 157.677 105.85 158.076L108.826 155.8C107.11 157.107 105.139 157.943 103.192 158.827C100.926 159.844 98.6483 160.873 96.3827 161.89C91.7543 163.973 87.1241 166.056 82.4958 168.138C89.1938 174.762 95.9062 181.398 102.604 188.02C104.821 185.09 107.026 182.148 109.022 179.06C111.605 175.065 113.614 170.814 115.34 166.383C117.068 161.951 117.789 157.41 118.059 152.833C118.329 148.183 117.68 143.158 115.928 138.823C115.23 136.365 113.968 134.222 112.145 132.406C110.307 130.602 108.151 129.354 105.654 128.664C100.509 127.259 95.1581 128.797 91.3497 132.406C85.754 137.697 80.1691 143.001 74.5715 148.292C69.33 153.257 64.2234 158.5 58.5054 162.944L61.4813 160.667C58.4568 162.968 55.2472 164.918 51.7444 166.419L55.2597 164.954C49.2954 167.424 42.9391 168.647 36.5593 169.507L40.4667 168.986C38.1507 169.289 35.8239 169.555 33.4972 169.809L37.4045 198.35C46.0624 195.735 54.7203 193.107 63.3782 190.492C66.9799 189.402 70.2363 187.051 72.1602 183.819C74.0824 180.587 74.7801 176.118 73.6419 172.619C72.5019 169.119 70.2866 165.705 66.8935 163.937C63.5023 162.169 59.3864 161.309 55.5654 162.472C46.9075 165.087 38.2496 167.715 29.5917 170.33C22.561 172.461 18.0801 179.049 19.0601 186.278C19.4755 189.329 20.7378 192.478 23.1005 194.62C25.7833 197.054 29.7014 199.294 33.4972 198.871C46.1235 197.466 58.5791 195.941 69.9557 189.91C75.5281 186.955 80.4999 182.765 85.1156 178.516C89.3178 174.641 93.4319 170.669 97.5712 166.746C102.421 162.145 107.283 157.543 112.132 152.942L87.5665 146.524C88.2875 148.304 88.7532 150.121 89.0229 152.01L88.4961 148.147C88.7658 150.399 88.7298 152.639 88.4475 154.891L88.9744 151.029C88.5572 153.995 87.7373 156.841 86.5865 159.614L88.0681 156.139C85.3728 162.411 81.2965 167.896 77.2058 173.321L75.7241 176.796C75.1109 178.734 75.0246 180.658 75.467 182.596C75.8823 185.647 77.1446 188.796 79.5073 190.94C81.381 192.646 83.5729 193.905 85.9985 194.68C89.8932 195.928 93.7862 194.801 97.3267 193.215C102.225 191.013 107.135 188.808 112.033 186.603C117.374 184.207 123.081 182.185 127.33 177.995C133.956 171.48 135.008 161.975 132.523 153.426C130.869 147.735 128.323 142.105 125.161 137.068L102.077 154.673C102.825 155.497 103.572 156.308 104.32 157.132L100.534 142.989C98.9557 147.19 97.3752 151.392 95.7946 155.594C94.5342 158.948 95.5141 163.804 97.2763 166.794C99.0402 169.785 102.556 172.679 106.058 173.466C109.818 174.314 114.042 174.132 117.386 172.001C120.729 169.87 122.738 167.037 124.133 163.319L124.146 163.331Z" fill="#8367AA"/>
<path d="M0.0288086 204.016C0.15108 203.847 5.8583 204.973 6.76455 203.581C18.5332 185.453 14.6996 174.06 15.5807 168.211C36.7194 159.796 28.0722 166.128 28.6476 173.987C26.6391 175.961 14.4299 190.963 19.2057 191.786C34.7594 168.332 83.4272 161.007 111.017 142.08C93.101 161.358 49.2594 169.664 27.8025 188.118C38.9112 192.974 41.042 181.423 57.0471 175.646C65.5593 177.522 23.7136 198.773 94.5953 164.494C99.3225 165.547 63.7594 190.406 118.377 159.202L95.6238 175.392C101.27 181.41 145.786 153.778 108.543 183.661C106.56 184.728 94.1673 186.168 99.799 189.825C110.111 186.641 108.151 183.977 108.543 183.661C113.981 180.743 125.383 174.605 129.178 174.859C111.519 215.919 65.7301 215.508 19.4754 243.551C15.0431 217.711 27.3008 173.83 8.82159 225.401C3.60346 255.104 13.8671 248.565 14.0631 249.909C14.1368 250.465 13.8545 251.022 13.9642 251.568" fill="#5B3D70"/>
<path d="M94.2285 111.785C94.1062 112.015 93.921 112.075 93.6638 111.954L95.5015 113.771C95.453 113.129 95.845 112.778 96.4815 112.62C97.4237 112.378 98.1465 113.02 98.6248 113.771C99.7756 115.587 99.5311 118.069 98.8442 119.995C97.1918 124.62 92.6965 127.369 88.0196 128.277C85.4591 128.773 82.7655 128.749 80.1942 128.447C79.1279 128.325 78.0382 128.362 78.2828 127.078C78.504 125.904 79.189 124.765 79.7896 123.748C80.9763 121.726 82.4958 119.922 84.2831 118.372C85.2883 117.5 87.9692 115.018 89.5498 115.575C90.3337 115.853 89.28 117.294 88.9743 117.863C88.3001 119.086 87.5539 120.273 86.7213 121.411C85.0545 123.676 83.01 125.661 80.793 127.393L83.9288 128.677C83.8911 120.067 89.8555 111.991 98.1951 109.46L95.9295 107.22C94.0936 115.054 87.811 121.339 79.8993 123.24L82.226 124.995C82.9237 115.405 86.9533 106.203 93.5416 99.1313L90.652 96.9275C85.5076 103.648 79.2376 109.52 72.2088 114.267L74.7189 116.749C79.0416 109.484 84.382 102.921 90.6143 97.1696L87.5413 95.4018C85.3116 105.052 80.2427 113.807 72.9442 120.588L76.0171 122.356C77.8171 112.293 81.2587 102.619 86.2808 93.6823L82.85 92.762C82.3358 100.839 79.3239 108.528 74.3395 114.933L77.7685 115.853C78.601 107.656 80.597 99.6277 83.598 91.9508C84.2471 90.3041 81.6381 88.7662 80.5232 90.183C73.8379 98.6712 66.453 106.578 58.4316 113.843L61.3211 116.047C66.1347 106.59 72.4174 97.9809 79.9982 90.5098L77.1068 88.3061C70.666 96.9637 62.1663 103.963 52.4798 108.818L54.99 111.301C58.223 106.275 62.2274 101.856 66.8809 98.0899C68.7186 96.6005 66.1095 94.1061 64.2845 95.5229C61.0514 98.0415 57.8077 100.56 54.5746 103.079L57.1693 105.646C65.901 98.0898 75.1235 91.1153 84.7973 84.7704L82.5695 81.9126C75.4669 90.6673 66.6975 97.8962 56.7054 103.224L59.2156 105.706C61.5675 101.565 64.5794 97.9325 68.217 94.8207C69.7831 93.4766 67.726 90.8126 65.9873 91.9629C54.758 99.446 42.8545 105.888 30.4242 111.204L32.2726 114.34C44.5555 106.76 57.5991 100.451 71.2054 95.5592L69.1358 92.8954C65.5827 99.4825 61.456 105.743 56.7414 111.567C55.2957 113.359 57.5739 115.769 59.3378 114.134C70.9842 103.393 81.9456 91.9387 92.1589 79.8542L89.0229 78.5707C88.6795 82.6151 87.2482 86.3929 84.9574 89.7471L88.3127 91.1516C89.8932 86.1022 92.2937 81.392 95.4026 77.0934L92.0474 75.6887C90.6772 81.6221 88.1544 87.1194 84.5654 92.0598L87.7373 93.8882C89.8069 89.6623 91.864 85.4364 93.9336 81.1983C94.865 79.2971 95.6975 77.3114 96.7872 75.5072C97.5586 74.2358 98.5386 72.8917 100.18 73.0491L98.4037 71.7171C99.9591 76.3064 98.6734 81.1014 98.0495 85.7511C97.4237 90.4008 97.8769 94.9053 99.9231 99.3493C101.759 103.369 104.454 107.05 105.629 111.337C106.805 115.623 105.923 120.624 103.167 124.305C100.119 128.374 95.061 130.505 90.0029 130.287L91.5942 133.024C99.1391 120.624 107.588 108.794 116.908 97.6297L113.835 95.862C109.561 117.815 89.9544 131.461 71.5956 141.839L74.1076 144.321C80.4747 135.554 88.0429 127.684 96.5175 120.879L93.4445 120.079C95.4764 125.322 93.6531 131.135 90.1504 135.361C86.2916 139.998 80.9152 143.001 75.7241 145.931L78.4177 147.978C80.0468 137.855 86.0345 129.318 91.864 121.109C92.9428 119.595 90.848 117.706 89.3538 118.626C85.9499 120.697 82.5443 122.767 79.1279 124.838L81.8215 125.928C78.6999 114.122 77.0708 102.001 76.9611 89.7954C76.936 87.4221 73.4818 87.4948 73.2858 89.7954C72.3436 101.117 70.4214 112.318 67.53 123.312L71.1425 123.797C71.0813 111.833 72.2699 99.9184 74.7315 88.2092L71.1191 87.7249C70.3351 99.991 68.8768 112.209 66.7461 124.329H70.2866C69.1843 116.313 68.4003 108.249 67.8735 100.173C67.7386 98.1747 64.8724 97.6541 64.2611 99.6882L55.4683 129.173H59.007C57.3168 121.242 56.2145 113.214 55.7254 105.113C55.6031 103.188 52.5158 102.497 52.113 104.629C50.5451 112.947 49.7125 121.387 49.6748 129.851L53.2872 129.367C51.329 119.317 49.993 109.181 49.272 98.9738C49.0994 96.5884 45.8915 96.6974 45.5966 98.9738C44.0664 110.768 43.2825 122.634 43.2213 134.525H46.8949C46.7366 127.454 46.5892 120.394 46.4292 113.323C46.3806 110.986 42.7556 110.974 42.7556 113.323C42.7556 119.801 42.7556 126.291 42.7556 132.769C42.7556 134.743 46.0138 135.324 46.368 133.254C47.1412 128.701 46.5407 124.257 44.5807 120.067C44.1887 119.22 42.8293 118.905 42.0705 119.413C39.9398 120.854 38.4707 122.755 37.6364 125.177L41.1769 126.146C42.4499 120.346 43.3688 114.485 43.9442 108.576C44.1276 106.615 41.4574 106.348 40.5152 107.656C37.9924 111.204 36.0091 115.054 34.5149 119.135C33.7057 121.339 37.257 122.283 38.0536 120.104C39.2655 116.81 40.7597 113.638 42.5111 110.586C43.5522 108.77 41.1517 106.978 39.6215 108.382C36.6816 111.095 33.7542 113.819 30.8161 116.531L33.7057 118.735C35.8365 115.309 37.9547 111.87 40.0872 108.443C40.9809 107.002 39.51 105.488 38.0176 105.779C31.5749 107.014 29.223 114.086 27.8528 119.583C26.7866 123.857 25.6609 128.12 24.6558 132.406C24.0804 134.804 24.4976 139.102 27.9751 138.799C29.8236 138.642 30.7298 136.014 31.6001 134.658C32.6898 132.975 33.792 131.292 34.9302 129.645C37.2948 126.182 39.7672 122.78 42.3403 119.462C47.2743 113.093 52.6147 107.014 58.2608 101.25C59.1418 100.354 60.0229 99.446 60.9292 98.5864C60.9544 98.5622 61.5297 98.0899 61.4938 98.0778C61.7383 98.1626 61.8246 99.2281 61.8606 99.446C62.2778 101.795 62.4612 104.205 62.596 106.578C62.8891 111.712 62.7183 116.883 62.0206 121.968L65.633 122.453C66.9421 112.633 69.8946 103.042 74.2784 94.1426L70.9231 93.7066C72.7589 102.255 74.5841 110.792 76.4217 119.341C76.8137 121.181 79.4587 120.951 79.9604 119.341C83.9648 106.687 88.3486 94.1424 93.1011 81.7432L89.4886 81.2589C90.6772 90.4977 91.8514 99.7246 93.0399 108.963C93.333 111.228 96.5912 111.361 96.7135 108.963C97.0084 103.163 96.9958 97.3513 96.6775 91.5513C96.5427 89.2263 93.0885 89.2022 93.004 91.5513C92.7576 97.9688 93.0273 104.386 93.8239 110.768C94.1062 113.032 97.4237 113.165 97.4975 110.768C97.7798 102.086 98.3426 93.428 99.1625 84.7825L95.5501 85.2668L97.9991 100.1C98.294 101.856 101.221 101.819 101.54 100.1C102.678 94.094 103.363 88.0275 103.584 81.937H99.9105C100.621 89.3353 101.331 96.7337 102.041 104.132C102.261 106.433 105.593 106.506 105.715 104.132C106.168 95.535 106.193 86.9378 105.801 78.3406C105.69 76.0157 102.128 75.9915 102.128 78.3406C102.128 83.4868 103.205 88.4514 105.226 93.1859C106.046 95.1112 109.119 93.7187 108.581 91.7813C106.29 83.6078 104.001 75.4345 101.71 67.2612C101.086 65.0089 97.5352 65.9656 98.1717 68.2299C100.069 75.0229 101.968 81.8036 103.866 88.5968L107.405 87.628C106.621 85.2789 105.837 82.9297 105.066 80.5687L101.71 81.9732C104.368 86.3808 106.267 91.1033 107.43 96.1041L110.969 95.1353C109.23 90.7763 107.491 86.4171 105.753 82.058L102.678 83.8258C105.654 87.071 107.553 91.0064 108.347 95.305L111.888 94.3362C109.768 89.3232 108.862 84.0196 109.243 78.5949L105.814 79.5151C112.83 92.3988 111.262 109.303 101.845 120.648C100.364 122.428 102.861 124.995 104.442 123.215C109.622 117.403 115.328 110.065 113.1 101.831C112.733 100.475 111.03 100.112 110.025 101.032C98.0602 112.051 84.5906 121.363 70.042 128.737L72.2699 131.595C78.4428 123.712 85.4842 116.604 93.2485 110.247C99.9591 104.738 107.871 97.1696 104.895 87.6038C104.526 86.4292 102.726 85.6665 101.82 86.8047C91.436 99.8215 79.581 111.627 66.489 121.98C64.8725 123.252 67.0158 126.037 68.7186 124.838C78.4051 117.96 86.9281 109.726 94.1296 100.33L90.9577 98.5016C85.0311 107.644 78.1353 116.108 70.3837 123.797L72.9801 126.364C79.0793 120.031 85.1785 113.698 91.2759 107.377L88.3864 105.174C81.4187 117.343 70.5311 126.945 57.5379 132.467L60.0481 134.949C64.0399 126.618 70.042 119.51 75.2943 111.966C80.5232 104.459 84.8837 96.3946 88.3738 87.955C90.3571 83.1477 92.0366 78.2196 93.4068 73.2066L90.0514 73.6424C90.8102 74.7201 91.6805 75.5677 92.8439 76.2216C93.6027 76.6454 94.4352 76.4637 95.0736 75.9431C96.4815 74.7806 97.8768 73.6061 99.2848 72.4437L96.6901 69.8766C85.4105 80.7502 70.0294 86.0901 58.5179 96.6732C55.3083 99.6277 52.4924 103.006 50.3005 106.772C49.0994 108.842 52.1004 110.441 53.4724 108.6C59.363 100.718 65.4244 92.6047 73.3973 86.6351C77.4377 83.6078 81.8952 81.4889 86.5613 79.5878C91.2274 77.6867 95.8072 75.7614 99.7379 72.5769L97.1432 70.0098C92.2937 75.1803 87.0522 79.9511 81.4295 84.298C79.5684 85.739 82.1901 88.294 84.026 86.8651C89.6469 82.5182 94.8884 77.7474 99.7379 72.5769C101.38 70.8333 98.9431 68.5446 97.1432 70.0098C93.0759 73.3033 88.0196 75.0592 83.242 77.0449C78.4662 79.0308 74.3521 81.3072 70.3962 84.3707C62.4108 90.5825 56.3008 98.7438 50.3113 106.76L53.4832 108.588C61.26 95.1839 76.5566 88.96 88.9492 80.6291C92.612 78.171 96.1255 75.4951 99.2974 72.4316C101.013 70.7727 98.4774 68.3752 96.7009 69.8645C95.293 71.0269 93.8976 72.2016 92.4897 73.364L94.7175 73.0854C94.117 72.7463 93.6405 72.3831 93.2485 71.814C92.3782 70.5668 90.3212 70.6516 89.8932 72.2499C87.5161 80.9198 84.2345 89.3111 80.009 97.2665C75.7852 105.222 70.3099 112.608 64.9713 120.019C61.9703 124.196 59.1293 128.483 56.9014 133.12C56.0671 134.84 57.7214 136.329 59.4116 135.603C72.9316 129.851 84.3334 119.656 91.5708 107.002C92.5742 105.234 90.1503 103.272 88.6795 104.798C82.5821 111.131 76.4829 117.464 70.3837 123.785C68.7546 125.48 71.3025 128.011 72.9801 126.352C80.953 118.457 88.0429 109.714 94.1296 100.318C95.4404 98.2957 92.3423 96.6732 90.9577 98.4895C84.1608 107.353 75.9938 115.2 66.8576 121.69L69.0854 124.547C82.1775 114.195 94.0325 102.388 104.417 89.3716L101.344 88.5724C104.124 97.4966 94.9387 104.072 89.0103 109.024C81.8592 114.994 75.3806 121.714 69.6608 129.028C68.4237 130.602 69.918 132.878 71.8905 131.885C86.7088 124.378 100.437 114.836 112.621 103.611L109.548 102.812C111.397 109.617 106.071 115.914 101.833 120.661L104.429 123.228C114.925 110.586 116.822 92.1325 108.973 77.6988C108.054 76.0157 105.666 76.9238 105.544 78.6191C105.152 84.3224 106.094 90.0497 108.324 95.3291C109.23 97.4603 112.303 96.7095 111.863 94.3604C110.956 89.4443 108.642 84.964 105.249 81.2831C104.062 79.9996 101.502 81.3435 102.176 83.0508C103.915 87.41 105.654 91.7693 107.392 96.1283C108.25 98.2595 111.471 97.4966 110.931 95.1595C109.707 89.8802 107.65 84.8188 104.846 80.1569C103.805 78.4375 100.817 79.5516 101.489 81.5615C102.273 83.9106 103.057 86.2597 103.829 88.621C104.564 90.8247 108.006 89.9286 107.369 87.6522C105.47 80.8592 103.571 74.0783 101.674 67.2853L98.134 68.2541C100.425 76.4274 102.714 84.6008 105.005 92.7741L108.36 91.3696C106.596 87.2527 105.753 82.8208 105.763 78.3527H102.09C102.482 86.9499 102.457 95.5592 102.003 104.144H105.679C104.969 96.7458 104.258 89.3474 103.548 81.9491C103.327 79.6483 99.959 79.5757 99.8727 81.9491C99.666 87.7249 99.0276 93.4645 97.9505 99.1555H101.489L99.0402 84.3224C98.686 82.1549 95.6112 82.9177 95.4278 84.8067C94.6079 93.4522 94.0433 102.11 93.7628 110.792H97.4363C96.6398 104.411 96.3718 98.0052 96.6163 91.5755H92.9428C93.2611 97.3755 93.2719 103.188 92.9788 108.988H96.6523C95.4656 99.7488 94.2896 90.5221 93.1011 81.2831C92.8439 79.2609 90.26 78.8008 89.4886 80.7988C84.7362 93.198 80.3524 105.743 76.348 118.396H79.8867C78.0508 109.847 76.2257 101.311 74.388 92.762C74.0698 91.2848 71.7196 90.9336 71.0328 92.3261C66.3433 101.856 63.2937 111.979 61.8858 122.477C61.6161 124.487 65.2159 124.983 65.4982 122.961C66.3181 116.943 66.5627 110.889 66.0862 104.834C65.8902 102.328 65.8902 99.3008 64.9102 96.9516C63.9302 94.6027 61.3715 93.864 59.2156 95.2808C57.0596 96.6974 55.1249 99.1313 53.2998 101.057C51.3524 103.115 49.4428 105.198 47.5692 107.329C43.9064 111.494 40.4163 115.817 37.0987 120.249C33.2652 125.359 29.6654 130.65 26.3083 136.075L27.9014 135.179C28.2071 135.155 27.9374 135.433 27.9985 134.949C28.0722 134.404 27.9985 133.932 28.1334 133.387C28.5128 131.764 28.9425 130.154 29.3471 128.543C30.1185 125.431 30.8521 122.32 31.6738 119.22C32.7131 115.321 34.3674 110.162 38.9346 109.29L36.865 106.627C34.7342 110.053 32.6161 113.492 30.4853 116.919C29.3705 118.711 31.8698 120.503 33.3749 119.123C36.3148 116.41 39.2421 113.686 42.1802 110.974L39.2907 108.77C37.3919 112.1 35.7879 115.563 34.4645 119.147L38.005 120.116C39.3877 116.326 41.2992 112.79 43.6385 109.496L40.2095 108.576C39.6701 114.158 38.789 119.692 37.5752 125.177C37.0736 127.466 40.3552 128.362 41.1158 126.146C41.6174 124.668 42.547 123.433 43.8579 122.562L41.3477 121.908C42.8545 125.141 43.3562 128.786 42.7556 132.297L46.368 132.781C46.368 126.303 46.368 119.813 46.368 113.335H42.6945C42.8545 120.406 43.0002 127.466 43.1602 134.537C43.2087 136.874 46.8212 136.886 46.8337 134.537C46.8949 122.646 47.6789 110.78 49.2091 98.9859H45.5355C46.2835 109.508 47.6663 119.982 49.6748 130.347C50.0793 132.394 53.2764 131.873 53.2872 129.863C53.325 121.714 54.0837 113.613 55.6032 105.609L51.9907 105.125C52.505 113.541 53.6432 121.908 55.4071 130.154C55.7991 131.97 58.4568 131.788 58.9459 130.154L67.7386 100.669L64.1262 100.185C64.6656 108.588 65.5216 116.967 66.6742 125.31C66.9187 127.078 69.9179 127.018 70.2128 125.31C72.3922 112.875 73.9116 100.33 74.7189 87.737C74.8538 85.7027 71.5345 85.2426 71.1065 87.2527C68.5838 99.2766 67.3233 111.531 67.3952 123.809C67.3952 125.831 70.4825 126.303 71.0094 124.293C73.9727 112.984 75.9309 101.456 76.8875 89.8075H73.2121C73.3236 102.328 75.0138 114.8 78.209 126.909C78.5039 128.023 79.8993 128.604 80.9045 127.998C84.3083 125.928 87.7121 123.857 91.1303 121.787L88.6183 119.304C82.618 127.756 76.4703 136.632 74.8053 147.045C74.5607 148.547 76.0046 149.939 77.4988 149.092C83.3768 145.774 89.4149 142.287 93.5542 136.85C97.3266 131.897 99.2237 125.104 96.9095 119.147C96.3826 117.803 94.9621 117.44 93.8365 118.348C85.1048 125.359 77.4143 133.496 70.8494 142.517C69.7345 144.055 71.8653 145.847 73.3595 144.999C88.6309 136.366 104.025 126.097 112.438 110.295C114.691 106.07 116.369 101.541 117.287 96.8427C117.593 95.2443 115.5 93.5491 114.215 95.0749C104.699 106.469 96.0284 118.529 88.3252 131.195C87.5772 132.418 88.5572 133.871 89.9166 133.932C100.254 134.392 109.07 126.485 109.719 116.313C110.038 111.264 107.894 106.723 105.531 102.388C103.045 97.8356 100.975 93.6218 101.354 88.3182C101.772 82.4454 103.829 76.5848 101.845 70.7727C101.563 69.9493 100.926 69.5255 100.069 69.4407C95.5015 69.0047 93.3096 73.9331 91.6805 77.2872C89.2675 82.2154 86.867 87.1558 84.4557 92.0839C83.4146 94.203 86.2556 95.8134 87.6276 93.9123C91.3748 88.742 94.0433 82.8693 95.4764 76.6696C95.9547 74.587 93.3222 73.6182 92.1211 75.2651C88.8269 79.8058 86.3293 84.8429 84.6517 90.183C84.0152 92.2294 86.8796 93.2222 88.007 91.5876C90.6772 87.6885 92.1822 83.2567 92.5742 78.5707C92.7091 77.0572 90.4308 76.1005 89.4401 77.2872C79.2268 89.3837 68.2655 100.827 56.6191 111.567L59.2156 114.134C64.1388 108.068 68.4867 101.589 72.1836 94.7359C72.8831 93.4401 71.7071 91.4907 70.114 92.0719C56.2019 97.0606 42.8545 103.466 30.3019 111.216C28.2448 112.487 30.0322 115.26 32.1503 114.352C44.5807 109.036 56.4843 102.594 67.7135 95.1112L65.4856 92.2536C61.6394 95.5471 58.4064 99.4825 55.9089 103.878C54.99 105.488 56.8151 107.22 58.419 106.36C68.6575 100.899 77.7433 93.4401 85.0311 84.4797C86.2304 83.0025 84.6877 80.387 82.8015 81.6221C72.883 88.1365 63.4034 95.305 54.4398 103.067C52.6273 104.629 55.2237 107.05 57.0362 105.634C60.2693 103.115 63.513 100.597 66.7461 98.0778L64.1514 95.5108C59.2641 99.4704 55.0763 104.181 51.6833 109.46C50.6422 111.083 52.6507 112.717 54.1934 111.942C64.4697 106.796 73.311 99.2887 80.133 90.1224C81.3935 88.4272 78.6873 86.5019 77.2417 87.9187C69.454 95.5955 62.9251 104.471 57.9911 114.195C57.0596 116.023 59.3019 117.815 60.8806 116.398C68.902 109.133 76.2869 101.226 82.9741 92.7379L79.8993 90.9699C76.7759 98.9617 74.8052 107.317 73.935 115.841C73.7282 117.863 76.3965 117.997 77.3639 116.761C82.7403 109.847 85.8259 101.456 86.3779 92.762C86.4876 90.9457 83.8066 90.3162 82.9489 91.8418C77.7937 101.045 74.1813 111.022 72.3184 121.387C72.0001 123.131 73.9853 124.463 75.3932 123.155C83.1197 115.987 88.5824 106.59 90.9451 96.3704C91.3497 94.5904 89.2441 93.3432 87.8722 94.6027C81.4187 100.548 75.8697 107.402 71.3996 114.921C70.5059 116.422 72.3562 118.457 73.9116 117.403C81.5032 112.269 88.1293 106.009 93.6765 98.7559C94.9387 97.1092 92.1822 95.0507 90.7869 96.5521C83.5117 104.374 79.1639 114.4 78.4051 124.983C78.3205 126.206 79.6422 126.993 80.7318 126.739C89.8195 124.547 97.2043 117.185 99.3225 108.177C99.6282 106.881 98.4523 105.525 97.0569 105.936C87.1745 108.927 80.0467 118.42 80.0953 128.652C80.0953 130.36 82.0426 130.868 83.2312 129.936C86.2304 127.599 88.8144 124.777 90.848 121.593C92.4268 119.123 95.1455 114.764 91.6805 112.572C88.9618 110.865 85.6065 112.705 83.3769 114.328C80.4621 116.459 77.9897 119.171 76.2383 122.307C74.7927 124.899 72.9801 129.173 76.3354 131.171C77.8297 132.055 79.9245 132.091 81.6255 132.2C83.7077 132.333 85.7899 132.249 87.847 131.946C94.8524 130.892 101.662 126.109 102.787 118.796C103.327 115.333 102.408 110.998 98.882 109.387C95.7946 107.983 91.4486 110.15 91.6931 113.771C91.7669 114.812 92.4771 115.502 93.529 115.587C95.1221 115.708 96.433 114.933 97.2655 113.613C98.526 111.627 95.3541 109.799 94.0936 111.785H94.2285Z" fill="#CFBAD3"/>
<path d="M92.2308 7.46789C96.1255 13.3043 103.62 51.5437 102.36 62.2962C136.306 109.629 126.828 145.834 39.0569 167.908C41.0546 166.479 43.3436 165.172 42.6945 163.113C63.7702 156.902 78.6136 147.881 91.1537 137.576C123.692 110.84 116.664 100.911 101.955 68.9438L30.5338 114C27.6676 112.935 29.419 101.347 29.7624 98.937C43.5648 95.9342 28.4894 102.606 37.9187 102.751C59.2282 91.2723 86.6476 81.5611 92.1822 64.1971C99.3585 41.7356 75.8589 8.36394 92.22 7.45579L92.2308 7.46789Z" fill="#020104"/>
<path d="M68.3626 126.23C61.0281 129.887 52.8593 132.829 47.5692 137.527C52.149 152.034 25.3409 162.217 42.682 163.113C43.3311 165.171 41.0421 166.479 39.0462 167.908C32.6287 172.497 28.9911 173.611 28.6243 173.975C28.0489 166.128 36.7068 159.783 15.5574 168.198C18.2995 150.048 6.27369 121.616 49.2468 109.253L33.1663 125.842C46.2836 110.779 104.526 90.6664 55.4306 117.959C54.4632 123.881 69.7598 115.32 75.6738 115.804L68.3518 126.218L68.3626 126.23Z" fill="#4E4C75"/>
<path d="M92.2308 7.46765C75.8697 8.37581 99.3585 41.7354 92.1948 64.209C79.421 65.65 64.1999 67.0789 59.8647 72.334C48.6463 66.873 77.3154 68.1686 52.113 61.8722C60.379 43.1641 74.8538 23.4512 75.6378 4.84006C77.0331 3.2175 72.8201 -0.802599 80.953 0.141881C83.83 9.53824 87.2105 -0.0760752 92.2434 7.47975L92.2308 7.46765Z" fill="#BBBFC9"/>
<path d="M128.163 191.473C104.526 226.649 55.1627 223.961 14.038 249.884C13.8546 248.54 3.58017 255.079 8.7965 225.378C27.2775 173.806 15.018 217.688 19.4521 243.528C65.7068 215.496 111.496 215.896 129.155 174.835C135.878 159.19 127.587 152.276 137.078 154.432C142.075 167.013 135.952 179.86 128.163 191.461V191.473Z" fill="#020104"/>
<path d="M144.365 200.759L141.021 200.565C133.134 197.235 134.665 200.117 134.336 200.178C131.579 200.613 130.955 197.429 127.697 198.954C125.027 200.203 121.684 211.039 82.4347 227.18C81.7371 227.326 76.7275 225.97 68.8284 230.558C75.5893 233.647 79.4822 228.404 82.4347 227.18C87.7985 226.055 96.4079 224.444 102.678 225.026C120.508 226.405 82.5085 233.053 76.9235 235.197C65.4983 239.592 59.2894 245.791 49.2092 250.259C48.9161 250.393 47.3481 246.808 40.8569 249.776C40.589 249.896 38.861 248.842 34.0726 251.047C20.7486 257.198 21.9497 264.379 14.4048 271.596C12.4467 264.475 15.6797 261.145 13.8295 253.202C13.6946 252.645 14.038 252.089 13.9283 251.543C13.8169 250.986 14.0992 250.441 14.0254 249.884C55.1501 223.959 104.503 226.647 128.15 191.471C134.211 193.663 139.172 198.471 144.353 200.759H144.365Z" fill="#A1A2BC"/>
<path d="M91.1536 137.575C78.6009 147.88 63.7701 156.913 42.6944 163.113C25.3408 162.229 52.1615 152.045 47.5817 137.527C52.8591 132.829 61.0406 129.874 68.3751 126.23C115.806 102.581 77.0941 135.808 77.7559 137.624C78.7232 140.288 84.2093 133.689 91.1662 137.575H91.1536Z" fill="#856898"/>
<path d="M92.1947 64.2087C86.6475 81.5725 59.2388 91.2716 37.9311 102.763C28.5018 102.617 43.5772 95.9455 29.7749 98.9486C31.5137 86.4039 40.515 79.7806 41.0904 77.9157C42.5847 77.8188 47.6428 76.7775 47.8747 76.6443C50.8884 74.8401 55.7001 73.266 48.1696 71.6556C49.6513 68.4952 50.7032 65.0441 52.1003 61.8716C77.3027 68.1682 48.6335 66.8727 59.852 72.3337C64.1872 67.0784 79.4101 65.6497 92.1821 64.2087H92.1947Z" fill="#60597B"/>
<path d="M96.5048 76.1364C106.168 73.9811 91.7416 96.0067 86.8058 98.1016C76.3965 102.521 93.2359 88.7899 68.3877 97.8594L96.5048 76.1364Z" fill="#888788"/>
<path d="M111.005 142.068C114.668 138.121 127.539 123.118 121.378 136.837C120.35 139.138 112.659 140.942 111.005 142.068Z" fill="#5B3D70"/>
<path d="M70.8979 168.102C76.9485 169.495 64.5793 174.532 63.8205 174.362C57.7698 172.97 70.1391 167.932 70.8979 168.102Z" fill="#5B3D70"/>
<path d="M108.52 183.649C108.115 183.976 110.086 186.628 99.7756 189.813C94.1547 186.143 106.547 184.715 108.52 183.649Z" fill="#F9F0ED"/>
<path d="M139.857 224.759C166.897 241.432 3.40741 309.46 13.707 262.272C18.4828 260.068 40.6014 249.909 40.8586 249.788C40.1843 249.788 36.2158 256.169 38.7889 256.338C42.7807 256.604 47.7399 249.836 40.8586 249.788C47.348 246.833 48.9159 250.405 49.209 250.272C59.3 245.804 65.5089 239.604 76.9233 235.209C82.4957 233.065 120.508 226.405 102.678 225.038C117.985 217.736 124.489 210.628 134.335 200.19C134.666 200.142 133.134 197.248 141.021 200.578C145.773 207.721 149.055 213.606 149.851 221.127C149.912 221.683 149.729 222.229 149.752 222.785C149.912 227.024 146.703 230.183 145.712 234.228C134.236 252.645 106.242 266.026 76.116 276.887C102.176 261.327 137.617 247.511 139.577 224.686C119.823 252.766 71.2036 244.593 44.5807 271.704C39.7437 269.972 51.4135 254.739 54.1215 252.233C60.8195 248.202 82.8392 243.818 86.8562 237.46C72.919 240.536 61.42 245.489 54.1215 252.233" fill="#CFBAD3"/>
<path d="M134.346 200.178C124.502 210.616 117.998 217.734 102.69 225.024C96.4204 224.442 87.811 226.053 82.4473 227.18C121.697 211.039 125.052 200.201 127.709 198.954C130.955 197.429 131.579 200.613 134.346 200.178Z" fill="#60597B"/>
<path d="M47.8623 76.6328C43.0002 72.867 47.1161 73.8721 48.1572 71.644C55.6751 73.2544 50.876 74.8286 47.8623 76.6328Z" fill="#888FB8"/>
<path d="M85.2756 119.643C84.5527 124.256 84.1985 128.894 84.283 133.556C84.3082 134.645 85.459 135.735 86.6098 135.311C90.4919 133.858 93.1387 130.977 95.5877 127.78C98.0368 124.583 100.142 121.29 103.62 119.328L101.11 116.846C98.4036 122.646 93.3329 126.678 88.3863 130.565L91.2759 132.769C96.9219 122.525 96.4329 110.561 94.9261 99.3486C94.6204 97.1084 91.2884 96.9269 91.2525 99.3486C91.1302 106.929 90.4811 114.497 89.2674 121.992C88.9006 124.28 92.4393 125.261 92.8079 122.961C94.0684 115.151 94.7912 107.268 94.9135 99.3486H91.2399C92.6478 109.859 93.3958 121.302 88.0914 130.928C87.0395 132.841 89.4022 134.367 90.9828 133.132C96.1631 129.063 101.453 124.753 104.282 118.674C105.017 117.088 103.474 115.235 101.771 116.192C98.3173 118.141 95.9294 121.265 93.6026 124.365C91.4485 127.235 89.1451 130.492 85.6316 131.812L87.9584 133.568C87.8847 129.233 88.1418 124.91 88.8143 120.624C89.1703 118.335 85.6316 117.354 85.2756 119.655V119.643Z" fill="#CFBAD3"/>
<path opacity="0.11" d="M81.48 119.401C84.5404 118.965 87.6026 118.529 90.6774 118.093C96.3828 111.966 102.103 105.827 107.81 99.6997C100.964 105.5 94.1172 111.3 87.2717 117.1L108.202 103.078C89.354 110.38 71.8781 120.006 55.7742 131.957C55.0387 132.454 54.9165 132.635 55.909 132.793L58.3581 132.696C61.2117 132.345 64.0653 131.945 66.8937 131.473C71.2775 130.783 75.6506 130.068 79.9984 129.233C81.7246 128.906 84.1251 128.7 85.5456 127.526C91.2887 123.045 96.8611 118.371 102.261 113.504C103.877 111.445 105.409 109.314 106.842 107.135C107.626 106.408 107.492 106.154 106.438 106.384C104.147 107.147 101.955 108.127 99.8622 109.314C95.7463 111.385 91.6555 113.516 87.6026 115.707C85.4233 116.749 83.3662 117.984 81.4422 119.413L81.48 119.401Z" fill="white"/>
<path opacity="0.11" d="M94.5594 118.542L94.4857 120.491C98.5261 113.166 102.581 105.84 106.621 98.5141C101.845 105.925 97.057 113.347 92.2812 120.758C97.3879 114.219 102.495 107.668 107.614 101.13C99.6661 108.116 91.7166 115.103 83.7689 122.09L101.932 109.824C94.608 114.074 87.2717 118.312 79.9479 122.562C86.3528 119.317 92.7577 116.072 99.1518 112.815C90.8607 115.83 82.8519 119.414 75.1236 123.579C68.6198 127.018 62.4739 131.05 56.693 135.664C55.8604 136.208 55.9449 136.475 56.9375 136.475C59.1294 136.221 61.2727 135.748 63.3675 135.034C67.433 133.896 71.4735 132.709 75.503 131.45C77.6464 130.905 79.7034 130.142 81.6759 129.161L91.8515 123.24L91.0567 123.579L93.1749 122.731C94.1782 122.332 94.9263 121.617 95.4279 120.588C97.6198 117.488 99.7272 114.34 101.772 111.131C103.854 107.959 105.862 104.738 107.785 101.469C108.52 100.597 108.862 99.616 108.8 98.5505C108.935 96.952 108.739 95.4022 108.225 93.8885C107.258 94.3851 106.56 95.1601 106.155 96.2255C104.784 98.5382 103.462 100.887 102.2 103.273C100.583 106.215 99.0044 109.194 97.4742 112.185C96.2982 114.219 95.3308 116.338 94.5828 118.554L94.5594 118.542Z" fill="white"/>
<path opacity="0.11" d="M88.0198 118.408L87.6638 120.176L89.0231 118.154L87.1009 120.031L88.3129 119.026L85.8998 120.212L86.9535 119.982C83.9039 119.486 80.9658 118.348 77.9288 117.875C75.6631 117.512 73.0289 118.045 70.6896 118.105C60.0843 118.36 60.5014 121.387 47.2385 129.802C46.5031 130.262 46.4545 130.844 47.2871 131.243C48.1196 131.643 51.1944 131.607 51.9784 131.086C57.7215 127.272 63.4773 123.457 69.2205 119.631L64.8619 120.164C67.9834 120.455 71.1067 120.66 74.2426 120.806L81.4926 122.513C83.2799 122.852 84.3822 123.143 86.0347 122.658C88.962 121.798 90.4688 119.74 91.0316 116.919C91.1665 116.228 90.4203 115.914 89.8808 116.035C89.194 116.18 88.1421 117.778 88.0198 118.42V118.408Z" fill="white"/>
<path opacity="0.11" d="M89.219 129.96L88.8396 132.151C90.2116 129.524 91.5835 126.884 92.9662 124.256L87.4065 128.615L84.0512 129.003C79.7645 129.511 75.5281 129.96 71.2055 130.117C69.0118 130.19 68.4867 130.117 66.8451 130.977C59.9871 134.621 51.0342 141.075 46.6145 143.933C45.683 144.538 46.5156 145.216 47.2132 145.253C48.6337 145.325 50.7897 143.933 51.9171 143.182C57.4157 139.489 62.9144 135.808 68.413 132.115L64.1263 134.052C67.273 134.391 70.4089 134.754 73.5556 135.13C76.4092 134.924 79.2268 135.13 82.0067 135.76C84.3335 135.929 86.5614 136.038 88.4728 134.403C89.6595 133.386 90.3212 132.611 91.1304 131.243C91.9989 129.729 92.8081 128.179 93.5543 126.593C94.2645 125.285 94.6439 123.881 94.6817 122.392C94.901 120.987 94.4245 120.503 93.3708 121.75C92.5509 123.045 91.8029 124.389 91.1304 125.77C90.4201 127.126 89.7818 128.531 89.2316 129.96H89.219Z" fill="white"/>
<path opacity="0.11" d="M92.9177 121.362L92.8314 123.263C98.0729 113.843 103.314 104.422 108.568 95.0017L87.1871 124.523C94.6564 116.325 102.128 108.128 109.597 99.93C100.583 107.655 91.5708 115.393 82.5569 123.118L104.773 107.074C96.1255 112.559 87.4801 118.057 78.8222 123.542C86.6476 119.183 94.473 114.812 102.286 110.453C92.5742 114.751 83.0964 119.498 73.8738 124.704C67.3844 128.313 61.2115 132.43 55.3694 137.055C54.3409 137.697 54.4398 137.963 55.6391 137.854C58.3219 137.358 60.9418 136.631 63.5131 135.687C68.4975 134.089 73.4585 132.43 78.3925 130.71C81.0141 129.923 83.5369 128.918 85.9734 127.707L91.472 124.583C92.6479 123.966 93.5416 123.046 94.1548 121.822C96.8861 117.948 99.5437 114.012 102.128 110.041C104.747 106.093 107.308 102.085 109.78 98.041C110.663 96.9876 111.152 95.801 111.239 94.4932C111.275 92.8586 111.017 91.2845 110.467 89.7466C109.34 90.4489 108.507 91.4418 107.98 92.7132C105.531 96.8059 103.156 100.947 100.865 105.125C98.526 109.278 96.2604 113.48 94.0811 117.718C93.2719 118.844 92.8817 120.067 92.8817 121.387L92.9177 121.362Z" fill="white"/>
<path opacity="0.11" d="M105.188 106.518C101.148 110.586 97.093 114.667 93.0526 118.735C98.3301 111.397 103.609 104.072 108.887 96.7338C103.388 103.684 97.8896 110.635 92.3909 117.597C97.7673 111.337 103.144 105.077 108.507 98.8165C102.408 105.258 96.2982 111.712 90.199 118.154C96.0896 112.511 101.98 106.869 107.883 101.226C99.8855 107.256 91.9018 113.286 83.9038 119.316C90.9956 115.054 98.0981 110.78 105.188 106.518C87.5899 113.153 71.3637 122.126 56.5095 133.423C55.7381 133.944 55.6878 134.15 56.6929 134.247L59.2031 133.992C62.1304 133.459 65.0326 132.878 67.9347 132.224C72.4048 131.256 76.875 130.275 81.3073 129.161C83.1324 128.701 85.4466 128.362 86.9282 127.102C103.51 112.935 99.8729 118.372 107.907 106.227C108.617 105.549 108.63 105.295 107.919 105.476C106.914 105.488 106.008 105.84 105.175 106.53L105.188 106.518Z" fill="white"/>
<path opacity="0.11" d="M90.3212 125.491L90.1864 127.392C93.3097 121.847 96.4204 116.289 99.5438 110.743C95.5268 116.434 91.4972 122.125 87.4802 127.816C90.9955 123.433 94.5216 119.049 98.0369 114.666C94.0685 118.468 89.5624 121.58 84.5529 124.014C86.7825 122.67 89.0104 121.326 91.2401 119.982C85.0312 122.549 78.7737 124.995 72.4659 127.332C65.0199 130.274 58.126 134.294 51.7822 139.368C50.9982 139.574 50.4966 140.022 50.2502 140.712C50.8886 141.075 51.5737 141.075 52.2965 140.712C54.5981 140.022 56.8637 139.247 59.1167 138.375C61.3824 137.564 63.5994 136.667 65.8039 135.687C71.878 132.066 77.952 128.446 84.026 124.825C78.9194 126.569 73.8001 128.325 68.6935 130.068C73.1025 130.08 77.2903 130.177 81.6759 129.741H80.989C83.8552 130.08 86.1334 130.226 88.8522 129.354C89.6847 129.172 90.3086 128.676 90.7258 127.865C91.9503 126.254 93.1137 124.607 94.2411 122.924C95.6724 120.854 97.0696 118.747 98.429 116.628C99.4809 115.199 100.326 113.673 100.975 112.026C101.502 110.549 101.563 109.048 101.171 107.522C101.293 106.711 101.036 106.578 100.412 107.11C99.2363 108.466 98.2455 109.956 97.449 111.578C95.7336 114.557 94.0937 117.56 92.4898 120.587C91.5457 122.125 90.8229 123.76 90.3086 125.479L90.3212 125.491Z" fill="white"/>
<path opacity="0.11" d="M90.3698 121.617L89.9653 123.481L92.1212 119.897C88.1042 124.402 84.517 120.939 80.0702 120.575C77.8172 120.394 75.4293 120.939 73.1511 121.072C63.0978 121.665 59.7048 126.751 49.2595 133.398C48.4881 133.895 48.6949 134.549 49.4789 134.827C50.4715 135.166 53.2388 134.694 54.1091 134.125C59.8774 130.286 65.6332 126.436 71.3997 122.597L67.0411 123.699C71.5597 123.99 76.0173 124.087 80.4389 125.092C83.2188 125.722 85.5581 126.932 88.3488 125.988C91.7058 124.85 93.076 121.944 93.824 118.759C94.02 117.899 93.1623 117.681 92.5743 118.008C91.6555 118.529 90.591 120.612 90.3825 121.605L90.3698 121.617Z" fill="white"/>
<path opacity="0.11" d="M92.4771 125.068L92.3657 126.982L104.111 103.757C99.4089 111.458 94.6924 119.147 89.9903 126.848C94.9136 119.971 99.8242 113.081 104.747 106.203C96.8861 113.323 89.0355 120.443 81.1724 127.563C87.4424 122.901 93.7017 118.239 99.9717 113.577C83.9775 121.436 68.6323 130.372 53.913 140.35C53.2153 140.943 53.325 141.209 54.2438 141.137C56.2271 140.725 58.1494 140.083 59.987 139.223C63.5869 137.795 67.1633 136.305 70.7145 134.767C72.6259 134.065 74.4258 133.157 76.1161 132.043C82.0552 127.999 87.9945 123.966 93.9336 119.922C86.5991 123.252 79.2628 126.582 71.9265 129.924C74.4133 129.766 76.8875 129.742 79.3725 129.851C83.7563 129.512 88.0915 128.858 92.3782 127.89C93.3582 127.357 94.0685 126.534 94.473 125.432C96.433 122.005 98.3066 118.53 100.107 115.018C101.955 111.531 103.719 107.995 105.397 104.423C106.058 103.454 106.328 102.413 106.193 101.311L105.74 98.9861C104.76 99.5431 104.086 100.391 103.694 101.505C102.36 103.963 101.074 106.445 99.8494 108.964C98.2689 112.088 96.7513 115.224 95.257 118.384C94.1044 120.54 93.1748 122.768 92.4646 125.093L92.4771 125.068Z" fill="white"/>
<path opacity="0.11" d="M93.2233 118.783L93.1497 120.697C98.3552 112.015 103.548 103.333 108.752 94.6507C101.675 103.853 94.6079 113.056 87.5287 122.246C94.9513 114.739 102.385 107.232 109.806 99.7241C100.817 106.88 91.828 114.025 82.8518 121.181L105.03 106.699C87.3831 114.339 70.862 123.845 55.4809 135.215C54.4272 135.796 54.5135 136.075 55.7129 136.038C58.3957 135.699 61.0155 135.13 63.5994 134.331C68.6089 133.023 73.5933 131.655 78.5525 130.214C81.185 129.584 83.7329 128.725 86.2071 127.659C89.8555 124.547 93.2719 121.193 96.1381 117.367C99.8368 112.426 103.449 107.401 106.903 102.291C108.324 100.196 110.491 97.8109 111.275 95.3651C111.839 93.6092 111.079 91.3328 110.651 89.6861C109.548 90.2794 108.728 91.1754 108.189 92.362C105.763 96.1157 103.413 99.9179 101.135 103.768C98.8209 107.595 96.5786 111.457 94.4119 115.369C93.6154 116.41 93.2108 117.548 93.2108 118.783H93.2233Z" fill="white"/>
<path opacity="0.11" d="M93.5794 122.779L93.468 124.693C96.8251 118.069 100.191 111.434 103.548 104.81C99.3586 111.518 95.1582 118.227 90.9704 124.935C95.2931 119.111 99.6157 113.274 103.94 107.45C97.9506 113.347 91.9737 119.244 85.986 125.141C90.591 120.975 95.196 116.798 99.801 112.632C94.9137 116.265 90.0156 119.898 85.1283 123.53C89.1327 120.769 93.1389 118.009 97.1541 115.26C91.864 118.251 86.574 121.23 81.2965 124.22C85.4718 122.053 89.6362 119.886 93.8114 117.706C87.2483 120.6 80.696 123.482 74.1311 126.376C67.6525 130.299 61.2367 134.307 54.8804 138.424C54.2672 138.945 54.3662 139.211 55.1735 139.223C56.9375 138.981 58.6277 138.521 60.2802 137.831C63.4772 136.729 66.6617 135.578 69.8084 134.356C71.5112 133.823 73.1025 133.084 74.5968 132.14C80.5611 128.216 86.5254 124.293 92.4772 120.37L72.9317 128.071C77.1572 127.889 81.1976 127.805 85.398 127.223L84.6518 127.32C87.5665 127.611 89.415 127.672 92.1823 126.751C93.1012 126.424 93.7629 125.783 94.1782 124.838C95.5016 122.876 96.7747 120.878 97.9884 118.856C99.5438 116.35 101.061 113.819 102.543 111.264C103.683 109.545 104.613 107.716 105.323 105.791C105.544 103.297 105.483 102.933 105.017 100.451C104.124 100.875 103.51 101.577 103.167 102.558C102.004 104.653 100.903 106.784 99.8495 108.927C98.4901 111.591 97.1793 114.279 95.9188 116.992C94.9136 118.832 94.1423 120.757 93.5794 122.767V122.779Z" fill="white"/>
<path opacity="0.11" d="M89.6596 133.277L89.4402 134.912L92.2938 128.604C90.8607 130.214 89.1094 130.626 87.0523 130.868C83.4507 131.304 79.7646 131.413 76.1396 131.594C74.5608 131.703 72.9803 131.752 71.3889 131.74C70.3478 131.437 69.3805 131.51 68.4868 131.933C68.156 132.054 67.8377 132.212 67.5302 132.406C60.9904 136.123 54.6467 140.167 48.5241 144.563C47.9361 144.938 47.1162 145.652 47.9973 146.27C48.7813 146.815 50.8509 145.447 51.4389 145.059C56.9501 141.463 62.4613 137.867 67.96 134.258L65.5343 135.179C68.5839 135.53 71.6209 135.917 74.658 136.329L79.6171 136.511C82.7405 136.813 86.5003 138.339 89.4277 136.486C92.0601 134.815 93.4572 130.614 93.7503 127.683C93.86 126.545 93.2001 126.218 92.4161 127.09C91.8155 128.046 91.2887 129.052 90.8482 130.093C90.3573 131.122 89.9545 132.175 89.6362 133.253L89.6596 133.277Z" fill="white"/>
<path opacity="0.11" d="M125.199 153.196L126.19 153.85C124.011 150.532 121.832 147.215 119.65 143.909L125.48 154.335C123.84 150.859 122.198 147.372 120.569 143.897C120.656 149.83 120.742 155.751 120.814 161.684L122.883 150.133C121.684 155.303 120.472 160.462 119.271 165.632C120.228 163.029 121.182 160.425 122.137 157.822C120.361 162.399 118.586 166.964 116.809 171.541L118.242 168.623C116.835 171.117 115.427 173.612 114.019 176.094L115.831 173.369C114.141 175.719 112.451 178.068 110.761 180.416C110.527 180.852 110.626 180.962 111.066 180.719C111.985 180.066 112.818 179.326 113.576 178.503C115.108 177.002 116.613 175.489 118.097 173.939C118.917 173.176 119.65 172.328 120.289 171.42C121.72 167.957 122.811 164.385 123.558 160.716C123.95 156.877 123.975 153.039 123.657 149.2C122.761 153.487 121.855 157.786 120.961 162.072C122.186 161.164 123.252 160.11 124.182 158.912C125.492 157.555 126.276 155.933 126.559 154.044C126.595 153.535 126.447 153.063 126.093 152.639C125.187 151.077 124.243 149.539 123.265 148.026C122.308 146.5 121.305 144.999 120.264 143.521C120.032 143.025 119.663 142.686 119.186 142.504L117.3 141.959C117.3 142.48 117.484 142.952 117.876 143.364C118.598 144.454 119.345 145.532 120.116 146.597C121.06 147.929 122.027 149.261 123.018 150.569C123.657 151.525 124.39 152.397 125.199 153.196Z" fill="white"/>
<path opacity="0.11" d="M126.498 155.811L127.452 156.501C125.162 152.808 122.872 149.127 120.582 145.434L126.62 156.925L121.733 146.523L125.003 156.368L122.198 146.79C121.979 152.263 121.745 157.724 121.526 163.197L123.239 152.214C122.063 157.518 120.887 162.822 119.713 168.137C120.765 164.699 121.819 161.272 122.873 157.833C121.073 162.882 119.271 167.919 117.471 172.969L121.99 163.27L114.704 177.474L119.052 170.293C116.541 174.119 114.029 177.945 111.507 181.76C111.348 182.002 110.748 182.74 110.931 183.092C111.079 183.382 112.744 181.433 112.794 181.373C114.029 179.895 115.218 178.381 116.394 176.868C117.313 175.681 118.586 174.361 119.174 172.957C120.093 170.099 120.999 167.254 121.918 164.396L121.648 164.723C122.934 163.851 124.084 162.822 125.077 161.635C126.485 160.303 127.404 158.668 127.819 156.755C127.857 156.198 127.684 155.69 127.317 155.229C126.363 153.498 125.37 151.791 124.342 150.107C123.326 148.412 122.285 146.741 121.195 145.095C120.949 144.562 120.582 144.174 120.067 143.932L118.242 143.302C118.242 143.872 118.451 144.38 118.843 144.84C119.602 146.063 120.373 147.262 121.182 148.449C122.175 149.938 123.178 151.415 124.207 152.88C124.868 153.934 125.627 154.927 126.485 155.835L126.498 155.811Z" fill="white"/>
<path opacity="0.11" d="M127.796 155.605L123.606 160.182C122.346 160.727 121.269 161.502 120.362 162.507C119.271 163.331 118.598 164.457 118.354 165.861C115.966 171.77 112.364 177.013 107.589 181.579C107.357 181.833 107.27 182.196 107.662 182.365C108.054 182.536 108.617 181.917 108.826 181.688C112.28 177.776 115.452 173.962 117.863 169.288L120.08 164.662C121.439 163.476 122.921 162.471 124.525 161.623C125.615 160.897 127.477 159.54 128.333 158.463C129.4 157.094 129.509 157.034 128.947 155.714C128.786 155.351 127.697 154.794 127.819 155.605H127.796Z" fill="white"/>
<path opacity="0.11" d="M127.134 161.926L127.905 162.846L126.019 158.971C125.627 162.168 123.399 164.311 121.33 166.672C119.958 168.235 120.276 167.956 119.161 170.402C116.381 176.517 112.805 181.567 108.47 186.87C108.128 187.281 107.161 188.36 107.233 188.952C107.27 189.267 107.515 189.571 107.858 189.196C110.43 186.591 112.769 183.782 114.851 180.779C117.129 177.001 119.663 173.393 122.481 169.978C124.306 168.331 126.704 166.975 127.931 164.747C128.616 163.5 128.776 162.907 128.249 161.744C127.674 160.473 126.926 159.31 126.106 158.184C125.64 157.555 125.431 158.015 125.456 158.499C125.48 159.444 126.559 161.175 127.157 161.89L127.134 161.926Z" fill="white"/>
<path opacity="0.11" d="M125.714 156.405L127.085 157.386C124.378 152.373 121.684 147.372 118.978 142.359C119.553 149.915 120.129 157.483 120.691 165.038C121.452 160.098 122.211 155.146 122.97 150.205C121.659 156.332 120.35 162.472 119.039 168.599C120.373 164.36 121.709 160.122 123.056 155.884C120.999 161.733 118.94 167.593 116.87 173.442L122.615 161.394C119.798 166.915 116.969 172.437 114.152 177.958C115.977 174.968 117.814 171.989 119.64 168.998C116.761 173.418 113.871 177.837 110.992 182.257C110.796 182.561 110.025 183.432 110.198 183.867C110.282 184.086 112.377 181.725 112.451 181.652C113.993 179.8 115.475 177.897 116.957 175.997C118.034 174.604 119.884 172.812 120.485 171.117C121.905 167.666 122.982 164.106 123.718 160.437C124.097 156.611 124.11 152.797 123.779 148.97C122.799 154.492 121.831 160.013 120.851 165.535C121.867 164.929 122.75 164.179 123.509 163.283C125.199 161.672 126.399 159.711 127.096 157.398C127.121 156.756 126.951 156.163 126.571 155.606C125.566 153.523 124.525 151.465 123.448 149.43C122.382 147.384 121.292 145.35 120.154 143.34C119.909 142.71 119.517 142.226 118.978 141.875L117.03 141.281C117.043 141.935 117.262 142.54 117.667 143.085C118.464 144.551 119.283 146.004 120.141 147.432C121.182 149.237 122.247 151.029 123.326 152.809C124.023 154.08 124.82 155.291 125.714 156.429V156.405Z" fill="white"/>
<path opacity="0.11" d="M125.566 154.104L126.534 154.746L119.37 143.46L125.75 155.109C123.925 151.186 122.114 147.25 120.289 143.327C120.521 149.733 120.754 156.15 120.986 162.556C121.61 158.269 122.236 153.983 122.86 149.696C121.709 155.242 120.569 160.8 119.418 166.346L122.236 157.615C120.485 162.52 118.733 167.423 116.982 172.327L121.562 162.992C118.242 168.731 114.925 174.459 111.618 180.198C111.435 180.464 110.699 181.204 110.858 181.602C110.956 181.869 112.94 179.86 113.001 179.787C114.472 178.237 115.892 176.638 117.3 175.028C118.268 173.926 120.177 172.315 120.668 170.887C122.051 167.399 123.092 163.803 123.791 160.122C124.085 156.284 124.036 152.445 123.619 148.619C122.799 153.402 121.966 158.185 121.145 162.968C122.407 162.084 123.509 161.042 124.441 159.831C125.775 158.475 126.595 156.865 126.938 154.976C126.951 154.407 126.778 153.886 126.399 153.414C125.395 151.646 124.354 149.914 123.277 148.195C122.224 146.463 121.121 144.756 119.994 143.073C119.737 142.528 119.357 142.128 118.83 141.886L116.896 141.341C116.921 141.923 117.14 142.443 117.545 142.903C118.341 144.138 119.161 145.361 120.006 146.572C121.048 148.086 122.101 149.6 123.178 151.089C123.876 152.166 124.673 153.159 125.554 154.092L125.566 154.104Z" fill="white"/>
<path opacity="0.11" d="M126.289 158.996L127.244 159.819L123.326 151.973C124.194 154.358 125.077 156.756 125.945 159.141L123.852 152.457C122.921 156.792 121.99 161.127 121.047 165.462L123.104 159.505L118.769 170.499L121.231 164.905C119.505 168.392 117.778 171.892 116.05 175.379L118.868 170.124L112.402 181.167L115.574 176.202C112.744 179.145 110.442 182.402 108.642 185.974C108.543 186.314 108.666 186.41 108.973 186.241C109.584 185.78 110.111 185.247 110.564 184.618C111.262 183.794 111.949 182.946 112.621 182.088C113.173 181.408 113.7 180.719 114.189 180.004C116.295 173.962 119.688 168.998 124.39 165.087C126.154 163.343 127.208 161.999 127.636 159.65C127.808 158.717 126.032 155.727 125.8 155.23C125.284 154.153 124.563 151.61 123.509 151.028L122.137 150.253C120.974 149.6 122.885 153.075 122.712 152.736C123.423 154.153 124.171 155.557 124.942 156.937C125.296 157.7 125.749 158.391 126.301 159.02L126.289 158.996Z" fill="white"/>
<path opacity="0.11" d="M127.147 155.145C128.272 157.809 124.085 161.091 122.554 162.556C121.844 163.125 121.195 163.755 120.607 164.433C118.072 171.383 114.19 177.509 108.961 182.802C108.017 183.88 108.691 184.473 109.646 183.407C111.998 180.791 114.177 178.297 116.198 175.428C118.293 171.722 120.668 168.211 123.349 164.893C124.489 164.118 125.554 163.258 126.546 162.314C127.465 161.478 128.468 160.619 129.105 159.541C130.184 157.7 129.95 157.809 128.983 156.187C128.812 155.908 128.003 154.613 127.587 154.649C127.318 154.673 126.951 154.673 127.147 155.145Z" fill="white"/>
<path opacity="0.11" d="M126.607 158.874L127.575 159.637C125.482 155.411 123.387 151.185 121.292 146.96C121.218 153.825 121.146 160.691 121.073 167.556C121.88 163.464 122.7 159.383 123.509 155.29L119.064 171.334L122.506 160.872C120.521 165.958 118.537 171.044 116.565 176.129L121.012 166.285C118.561 171.044 116.112 175.803 113.663 180.56L118.965 171.371C115.463 175.887 112.438 180.658 109.867 185.695C109.719 186.155 109.829 186.241 110.221 185.937L110.956 185.174C112.033 183.794 113.087 182.39 114.092 180.948C114.912 179.823 115.709 178.685 116.468 177.522C118.83 173.998 121.035 170.378 123.069 166.648C124.316 165.583 125.469 164.42 126.521 163.161C127.427 162.253 127.905 161.163 127.954 159.916C128.028 159.371 127.905 158.85 127.587 158.354C126.778 156.562 125.935 154.782 125.052 153.026C124.194 151.258 123.288 149.514 122.346 147.783C122.15 147.226 121.806 146.814 121.317 146.536L119.614 145.833C119.566 146.39 119.713 146.911 120.068 147.395C120.704 148.655 121.366 149.914 122.053 151.149C122.896 152.699 123.754 154.249 124.636 155.775C125.199 156.876 125.861 157.906 126.607 158.874Z" fill="white"/>
<path opacity="0.11" d="M125.444 155.157L126.816 156.078C124.182 151.476 121.537 146.875 118.904 142.274C119.505 149.43 120.093 156.586 120.692 163.73C121.44 159.105 122.175 154.491 122.921 149.866C121.648 155.714 120.373 161.575 119.1 167.423L122.186 157.979C120.312 163.149 118.439 168.307 116.565 173.478L121.465 163.355C119.075 167.859 116.687 172.352 114.299 176.856C116.124 174.083 117.949 171.323 119.775 168.55C116.908 172.764 114.03 176.989 111.165 181.204C110.969 181.494 110.209 182.294 110.356 182.717C110.442 182.959 112.537 180.767 112.598 180.695C114.128 178.987 115.623 177.232 117.092 175.476C118.12 174.241 120.08 172.509 120.62 170.959C122.015 167.484 123.069 163.9 123.779 160.231C124.11 156.393 124.085 152.554 123.705 148.716C122.75 153.874 121.794 159.032 120.839 164.191C121.819 163.561 122.677 162.81 123.41 161.926C125.052 160.316 126.19 158.366 126.828 156.078C126.852 155.472 126.694 154.927 126.314 154.407C125.334 152.493 124.317 150.593 123.265 148.716C122.236 146.827 121.157 144.962 120.042 143.121C119.798 142.54 119.418 142.092 118.892 141.802L116.944 141.232C116.944 141.85 117.165 142.407 117.57 142.916C118.354 144.26 119.149 145.604 119.981 146.911C120.999 148.57 122.04 150.217 123.105 151.852C123.792 153.026 124.574 154.128 125.444 155.157Z" fill="white"/>
<path opacity="0.11" d="M127.086 157.834L128.04 158.597C125.958 154.891 123.876 151.198 121.806 147.493C123.288 151.937 124.782 156.381 126.264 160.825C125.322 157.277 124.39 153.717 123.448 150.169C122.86 155.267 122.272 160.365 121.697 165.45C122.371 162.229 123.043 158.996 123.73 155.775C122.346 160.643 120.961 165.511 119.578 170.378C120.569 167.363 121.562 164.36 122.554 161.345L117.056 175.186L120.877 166.746C118.634 171.032 116.381 175.319 114.141 179.606L118.746 171.783C115.463 175.779 112.683 180.054 110.417 184.618C110.295 185.018 110.417 185.103 110.761 184.872L111.41 184.242C112.364 183.08 113.271 181.894 114.154 180.683C114.875 179.739 115.561 178.758 116.223 177.776C118.929 173.817 121.378 169.713 123.595 165.462C125.64 163.355 127.807 161.781 128.407 158.802C128.481 158.306 128.359 157.834 128.04 157.398C127.244 155.812 126.399 154.262 125.518 152.724C124.66 151.174 123.766 149.648 122.835 148.135C122.628 147.638 122.297 147.287 121.831 147.081L120.177 146.367C120.129 146.875 120.289 147.348 120.63 147.784C121.256 148.898 121.918 149.999 122.59 151.077C123.423 152.445 124.268 153.79 125.138 155.134C125.688 156.102 126.338 156.998 127.086 157.834Z" fill="white"/>
<path opacity="0.11" d="M127.931 162.701L128.677 163.658L126.717 159.94C126.399 161.575 125.787 162.834 124.769 164.202C123.534 165.861 121.794 167.23 120.643 168.937C119.663 170.414 119.075 172.485 118.316 174.071C115.953 178.999 112.67 183.153 109.18 187.331C108.838 187.741 107.784 188.892 107.882 189.461C107.932 189.74 108.09 190.285 108.507 189.837C111.079 187.27 113.405 184.509 115.5 181.542C117.728 177.776 120.251 174.216 123.043 170.838C124.586 169.482 125.884 168.779 127.292 167.254C128.089 166.382 129.669 164.687 129.301 163.306C128.982 162.059 127.966 160.812 127.281 159.734C126.999 159.286 126.424 158.306 126.19 159.226C125.994 160.037 127.452 162.108 127.918 162.701H127.931Z" fill="white"/>
<path opacity="0.11" d="M76.6539 31.2257C77.9773 35.8513 78.6138 40.5737 78.5635 45.393V44.9571C78.4664 47.4998 78.3693 50.0307 78.2578 52.5734L78.283 52.1375C77.8173 56.8841 76.8013 61.5097 75.2208 66.0141C73.642 70.4944 71.5598 74.7203 68.9633 78.704C68.6936 79.1883 68.8285 79.0431 69.2331 79.031L70.2364 78.4256C71.3512 77.6142 72.4409 76.7788 73.518 75.919C75.1848 74.6113 76.8498 73.2914 78.4664 71.9231C79.1155 71.3661 80.0577 70.7366 80.376 69.901C82.9725 62.89 85.1895 55.9639 85.7901 48.4686C86.5741 38.7574 85.9123 28.913 84.3318 19.335C83.8301 19.5288 83.4633 19.8799 83.2188 20.3885C82.1399 21.9142 81.0988 23.4641 80.0955 25.0383C79.0669 26.6003 78.087 28.1866 77.143 29.797C76.7887 30.2329 76.6179 30.7051 76.6413 31.238L76.6539 31.2257Z" fill="white"/>
<path opacity="0.11" d="M76.972 33.6714C77.4629 36.0324 77.9646 38.3936 78.4537 40.767L78.4177 40.331C78.8942 47.4874 79.2125 54.5588 77.4629 61.6183L75.4904 68.3748C73.899 72.8066 71.8168 76.9841 69.2203 80.9195C68.35 82.4332 72.7968 78.2919 72.1099 78.9579C73.6904 77.4321 75.2458 75.8703 76.7886 74.2961C77.6337 73.509 78.3925 72.6492 79.0542 71.7169C80.8919 67.0551 82.7152 62.4416 83.7815 57.5254C84.8459 52.6093 85.4106 47.3542 85.3602 42.3653C85.3243 38.7448 85.0797 35.1122 84.846 31.5038C84.5169 26.3577 84.5277 27.1326 83.4758 20.7392C82.9975 20.9936 82.6541 21.3931 82.4707 21.938C81.541 23.609 80.6581 25.2922 79.813 27.0116C78.9445 28.7068 78.112 30.4262 77.328 32.1698C77.0098 32.6422 76.8857 33.1506 76.972 33.6835V33.6714Z" fill="white"/>
<path opacity="0.11" d="M73.3344 34.0949C74.131 40.791 74.9402 47.475 75.7349 54.1712C75.343 57.6584 74.523 61.0488 73.2733 64.3061C72.6745 66.5463 71.8043 68.6895 70.6661 70.7238C69.2941 73.9204 67.5427 76.8991 65.412 79.6842C64.7503 80.7134 67.1255 79.8538 67.4438 79.3331C69.8946 75.3251 72.3185 71.3656 74.0213 66.9701C76.1521 61.4485 77.3029 55.6727 77.6338 49.7878C77.8783 45.4771 77.8549 46.7606 77.6463 42.4016C77.3766 36.7224 78.0617 39.5802 74.3881 33.332C73.9835 32.6418 73.1025 33.5499 73.311 34.0707L73.3344 34.0949Z" fill="white"/>
<path opacity="0.11" d="M74.0698 39.9077C75.1972 43.2981 75.796 46.7611 75.8824 50.3091C76.5441 56.0606 76.0658 61.7881 74.4493 67.4912L72.2573 74.1875C70.506 78.5707 68.2278 82.6878 65.4479 86.514C65.0451 87.1558 65.5593 87.18 65.9873 86.9984C66.845 86.6473 67.9706 85.0973 68.4363 84.3224C70.9465 80.0723 73.4333 75.8827 75.1236 71.2207C76.4092 67.6729 77.2165 64.0766 77.8171 60.3713C78.4177 56.6661 78.4177 56.8477 78.5273 52.8639C78.7485 50.4058 78.6622 47.9721 78.2954 45.5381C78.1228 42.1477 77.5725 38.8179 76.6285 35.5485C76.4343 34.6282 75.4418 36.5052 75.4903 36.4324C75.075 37.1953 73.8612 38.9631 74.0698 39.9077Z" fill="white"/>
<path opacity="0.11" d="M76.1646 34.6284C77.524 39.2782 78.184 44.0248 78.1606 48.8683V48.3476C78.0617 50.9026 77.952 53.4453 77.8297 56.0003L77.8657 55.4796C77.3892 60.1779 76.3354 64.7549 74.7441 69.211C73.151 73.6186 71.0688 77.7961 68.4741 81.7192C67.4564 83.463 72.7465 78.3529 71.9517 79.1279C73.9116 77.2026 75.8464 75.2411 77.756 73.2673C78.7971 72.2745 79.7519 71.2088 80.6096 70.0706C83.2546 62.8902 85.5203 55.8186 86.1208 48.1417C86.8922 38.2973 86.1208 28.3318 84.5781 18.6085C84.026 18.9719 83.6214 19.4804 83.3643 20.1222C82.1901 22.1928 81.0501 24.2998 79.9479 26.4066C78.8223 28.5135 77.7434 30.6447 76.7023 32.788C76.3103 33.3571 76.1269 33.9745 76.1395 34.6284H76.1646Z" fill="white"/>
<path opacity="0.11" d="M76.8264 32.0972C78.1606 36.7349 78.8097 41.4694 78.772 46.2887V45.8286C78.6749 48.3714 78.5759 50.9143 78.4663 53.457L78.4915 52.9969C78.0257 57.7315 77.0098 62.3449 75.4293 66.8371C73.8613 71.2932 71.7791 75.5191 69.1952 79.4908C68.9273 79.9751 69.0621 79.8904 69.4775 79.8056L70.506 79.0913C71.646 78.1588 72.7717 77.2143 73.8739 76.2456C75.5893 74.7562 77.2903 73.2669 78.9446 71.7169C79.6297 71.0874 80.5611 70.3851 80.8919 69.4769C83.4506 62.4416 85.6192 55.4913 86.1946 47.9719C86.9408 38.2 86.2306 28.3073 84.6626 18.6565C84.1483 18.923 83.7689 19.3225 83.5244 19.8795C82.4222 21.6112 81.3684 23.3669 80.3399 25.1469C79.2988 26.9147 78.2955 28.6947 77.3281 30.4989C76.9595 30.9832 76.7886 31.516 76.8264 32.0851V32.0972Z" fill="white"/>
<path opacity="0.11" d="M74.9402 37.0615C75.5893 41.6628 76.2259 46.2519 76.875 50.8533C77.0099 54.4374 76.6898 57.9612 75.9184 61.4362C74.4134 69.864 71.3152 76.33 66.7228 83.9584C65.9874 85.1814 69.4901 82.0817 68.9507 82.6022C70.1015 81.464 71.2289 80.3137 72.3312 79.1272C72.9551 78.546 73.482 77.8921 73.9225 77.1654C76.2996 72.8306 78.1607 68.2898 79.4949 63.5432C80.5719 59.9833 81.221 56.3506 81.4422 52.6575C82.2873 44.2539 81.4422 36.0202 80.0702 27.7135C80.0091 27.3019 80.0468 27.3865 79.6908 27.5199L79.164 28.21C78.6371 29.0817 78.148 29.9657 77.6823 30.8739C76.9487 32.2542 76.2133 33.6468 75.5516 35.0635C75.2818 35.6447 74.8161 36.3834 74.9636 37.0494L74.9402 37.0615Z" fill="white"/>
<path opacity="0.11" d="M75.012 35.0277C76.7886 39.4958 77.3766 44.1092 76.7886 48.8679C77.2417 53.5662 76.7886 58.1917 75.4166 62.7204C74.683 64.9241 73.9475 67.128 73.1995 69.3317C71.45 73.6424 69.1951 77.6867 66.4404 81.4525C66.1455 81.9005 66.5627 81.9974 66.8935 82.0216C67.3466 82.0458 68.4741 81.0044 68.6934 80.6412C71.3996 76.7423 73.5915 72.5769 75.2817 68.1451C76.9845 63.7011 78.1228 59.1241 78.6874 54.4016C79.0182 51.9193 79.1513 49.437 79.1027 46.9547C79.2376 42.1598 78.4051 37.5463 76.5926 33.1025C76.348 32.267 74.8286 34.4465 74.9886 35.0398L75.012 35.0277Z" fill="white"/>
<path opacity="0.11" d="M75.9562 36.977C76.4578 39.3262 76.9595 41.6751 77.463 44.0121L77.4126 43.5641C77.8172 49.5579 78.0132 55.2975 76.9847 61.2792C75.539 69.6826 72.502 76.1728 67.9959 83.8135C67.7747 84.2736 67.8862 84.3705 68.3142 84.0919C69.2078 83.3655 70.017 82.5663 70.7506 81.6703C72.2323 80.0476 73.6779 78.4009 75.111 76.7299C75.9076 75.8944 76.6053 74.9984 77.2059 74.0175C79.4086 69.5253 81.088 64.8391 82.2514 59.9835C83.4148 55.1037 84.0261 50.1512 84.0872 45.1383C84.2221 37.7762 83.4148 30.5714 82.2747 23.3183C81.7982 23.609 81.4674 24.0327 81.284 24.602C80.3777 26.3697 79.52 28.1498 78.6983 29.954C77.855 31.7461 77.0458 33.5624 76.287 35.3908C75.9795 35.8993 75.8698 36.42 75.9562 36.977Z" fill="white"/>
<path opacity="0.11" d="M76.3102 33.3199C77.6588 37.9696 78.3079 42.7042 78.2828 47.5356V47.039C78.1839 49.594 78.0742 52.1368 77.9645 54.6918L78.0004 54.1954C77.5239 58.9177 76.4955 63.519 74.8897 67.9871C73.311 72.4311 71.2162 76.6207 68.6197 80.5802C68.3266 81.0887 68.4741 81.0039 68.9146 80.8949L69.9917 80.0958C71.191 79.0665 72.3669 78.0131 73.5195 76.9233C75.3069 75.2766 77.0942 73.6177 78.833 71.9103C79.5433 71.2081 80.5232 70.4331 80.8793 69.4643C81.737 67.1154 82.7277 64.7421 83.438 62.3446C84.5276 58.6755 85.2271 55.0066 85.7414 51.2407C87.2104 40.4519 86.3779 29.2634 84.6625 18.5594C84.1249 18.8741 83.7203 19.3222 83.4632 19.9277C82.2998 21.8286 81.1597 23.7662 80.0701 25.7157C78.9552 27.653 77.8782 29.6146 76.8497 31.5884C76.4577 32.1211 76.2743 32.6902 76.2868 33.3078L76.3102 33.3199Z" fill="white"/>
<path opacity="0.11" d="M76.5316 35.7785C77.1681 40.3556 77.8046 44.9448 78.4411 49.5218C78.5886 53.1061 78.2829 56.6297 77.5349 60.117C76.091 68.5567 73.0414 75.0592 68.5354 82.7359C67.7514 84.08 71.5958 80.387 71.0078 80.9924C72.306 79.6241 73.5917 78.2196 74.8413 76.8028C75.539 76.1005 76.1521 75.3255 76.6664 74.478C78.9069 70.0219 80.633 65.3842 81.8216 60.5528C82.789 56.9202 83.3518 53.2392 83.4866 49.5098C84.1358 40.9488 83.2907 32.5213 81.9205 24.0814C81.4782 24.2994 81.1851 24.6626 81.0251 25.1592C80.2429 26.6606 79.5075 28.1862 78.7972 29.7362C78.1966 31.0319 76.1647 34.1196 76.5064 35.7663L76.5316 35.7785Z" fill="white"/>
<path opacity="0.11" d="M74.6704 40.8274C75.208 43.1161 75.7475 45.4046 76.2743 47.6931C77.2417 53.6265 77.0205 59.4507 75.6378 65.1538C75.3195 67.4908 74.719 69.7552 73.8127 71.947C72.1477 77.5169 69.5026 82.663 65.8776 87.3734C65.4964 87.9788 66.1581 87.894 66.4404 87.8335C67.0896 87.7124 67.9832 86.1383 68.3015 85.6176C69.5386 83.5954 70.9339 81.5855 72.0487 79.4906C74.8772 74.1265 76.7886 68.399 77.8782 62.4658C78.5525 58.8089 79.0182 55.0552 78.9553 51.3257C78.8834 46.4217 77.8531 41.9293 76.6789 37.1706C76.4703 36.3352 75.6504 37.9214 75.6612 37.8973C75.2943 38.5995 74.4618 39.9799 74.6578 40.8274H74.6704Z" fill="white"/>
<path opacity="0.11" d="M29.1007 177.716C26.8476 180.61 24.6683 183.444 23.0626 186.749C20.957 191.084 19.6965 195.783 19.0222 200.517C18.5943 203.47 18.5817 206.123 19.0222 209.065C19.1085 210.385 19.4142 211.656 19.9411 212.868C20.4176 214.817 21.349 216.561 22.7209 218.086C22.9295 218.414 26.8117 214.296 26.7254 214.394C27.1173 213.981 30.4349 211.185 30.2281 210.228C29.8972 208.751 29.4567 207.225 29.3344 205.723C29.1007 202.926 29.7012 200.165 30.5697 197.525C31.5875 194.401 32.6771 191.363 34.1947 188.444C36.1799 184.642 38.5911 181.615 41.4321 178.382C41.0653 178.128 40.6374 178.007 40.1591 178.043C38.5426 177.897 36.9135 177.789 35.297 177.703C33.6805 177.607 32.0532 177.534 30.4241 177.509C29.9584 177.426 29.5178 177.497 29.1133 177.703L29.1007 177.716Z" fill="white"/>
<path opacity="0.11" d="M29.6636 179.11C27.398 182.002 25.1935 184.836 23.5662 188.141C21.4228 192.488 20.1372 197.187 19.3891 201.934C18.9234 204.9 18.8623 207.565 19.2669 210.543C19.328 211.874 19.6229 213.171 20.1479 214.406C20.6137 216.38 21.5199 218.159 22.8793 219.734C23.0393 219.989 26.2957 215.604 26.2112 215.713C26.6643 215.084 29.1997 212.383 28.9785 211.295C28.6477 209.707 28.1586 208.073 27.9985 206.463C27.7162 203.568 28.2557 200.711 29.1367 197.975C30.1778 194.766 31.2567 191.642 32.7995 188.639C34.7828 184.751 37.2319 181.664 40.1232 178.37C39.7924 178.164 39.413 178.103 39.0084 178.176C37.6238 178.214 36.2411 178.297 34.8691 178.407C34.1103 178.468 30.3379 178.262 29.6636 179.12V179.11Z" fill="white"/>
<path opacity="0.11" d="M26.0509 176.118C24.3248 178.466 22.7568 180.61 21.3741 183.165C19.0581 187.476 17.1611 192.234 16.3393 197.054C15.7513 200.467 15.4708 203.81 15.7639 207.261C15.8862 209.405 16.3519 211.474 17.1611 213.448C17.7365 215.628 18.7901 217.565 20.3455 219.272C20.6386 219.72 22.0465 218.91 21.7768 218.449C20.0866 216.221 19.0095 213.739 18.5438 210.991C18.0547 208.338 17.8462 205.662 17.945 202.974C18.4341 193.397 23.1002 184.424 28.624 176.808C29.088 176.166 26.3081 175.742 26.0384 176.105L26.0509 176.118Z" fill="white"/>
<path opacity="0.11" d="M25.5979 181.615C22.2552 186.266 19.4016 190.867 17.7366 196.412C16.6091 200.19 15.4458 204.573 15.4584 208.472C15.4584 209.732 15.5069 211.318 15.6417 212.564L16.3286 216.646C17.0011 219.564 18.312 222.167 20.2593 224.457C20.4301 224.721 22.5375 222.725 22.1455 222.096C20.5039 219.976 19.3764 217.615 18.7884 215.011C17.6502 209.453 17.8948 204.053 19.5113 198.834C20.137 195.976 21.0918 193.215 22.3649 190.563C23.7494 187.283 25.5242 184.242 27.7287 181.446C28.0847 180.925 25.9054 181.204 25.6105 181.615H25.5979Z" fill="white"/>
<path opacity="0.11" d="M29.1132 179.654C26.8476 182.56 24.6557 185.405 23.014 188.723C20.8581 193.082 19.5616 197.793 18.8262 202.564C18.3731 205.542 18.3119 208.219 18.7165 211.197C18.7884 212.541 19.0707 213.825 19.5976 215.06C20.0633 217.069 20.9929 218.874 22.4027 220.447C22.5483 220.666 26.7253 215.363 26.6264 215.484C27.6801 214.127 28.696 212.747 29.6886 211.355C30.032 210.991 30.2388 210.58 30.3 210.107C30.0554 208.607 29.6275 207.069 29.5178 205.566C29.2966 202.77 29.9206 200.021 30.8268 197.417C31.9183 194.293 33.0187 191.229 34.5741 188.312C36.6078 184.486 39.0694 181.433 41.9715 178.176C41.5436 177.982 41.0779 177.947 40.5996 178.068C38.8986 178.214 37.2083 178.382 35.5181 178.589C33.8279 178.77 32.1377 178.999 30.4474 179.254C29.9457 179.254 29.5178 179.399 29.1366 179.679L29.1132 179.654Z" fill="white"/>
<path opacity="0.11" d="M29.4316 178.32C27.1785 181.215 24.9992 184.049 23.3827 187.354C21.2627 191.688 19.9897 196.375 19.2794 201.109C18.8389 204.064 18.8011 206.704 19.2309 209.657C19.3046 210.978 19.6102 212.25 20.1245 213.473C20.5902 215.434 21.5091 217.19 22.8918 218.728C23.0752 219.018 27.0688 214.477 26.9699 214.575C27.9859 213.425 28.9658 212.262 29.9332 211.074C30.2767 210.772 30.4727 210.409 30.5212 209.985C30.2407 208.52 29.811 207.007 29.7013 205.529C29.4801 202.756 30.1058 200.019 30.9869 197.429C32.0406 194.328 33.1303 191.301 34.6605 188.396C36.669 184.605 39.0946 181.577 41.959 178.345C41.567 178.103 41.1265 178.018 40.65 178.078C38.9957 178.018 37.3559 177.995 35.7016 178.006C34.0491 178.006 32.3949 178.006 30.755 178.078C30.2767 178.018 29.8362 178.116 29.4442 178.345L29.4316 178.32Z" fill="white"/>
<path opacity="0.11" d="M27.3493 180.502C25.6483 182.717 24.0929 184.751 22.721 187.174C20.3564 191.375 18.5314 195.976 17.6377 200.723C17.0263 203.981 16.6469 207.165 16.8537 210.482C16.9148 212.566 17.3194 214.563 18.08 216.488C18.5691 218.511 19.5113 220.327 20.9318 221.914C21.1045 222.192 23.1363 218.68 23.0752 218.789C23.4438 218.136 24.8877 216.246 24.618 215.325C23.3701 211.112 22.4135 207.056 23.0267 202.612C23.8358 199.234 24.814 195.904 25.954 192.622C27.7791 187.743 30.4978 183.384 34.1336 179.545C34.6479 178.928 31.8194 179.437 31.5623 179.472C30.5589 179.631 28.0236 179.606 27.3367 180.514L27.3493 180.502Z" fill="white"/>
<path opacity="0.11" d="M26.8225 177.547C24.5569 180.646 22.4998 183.54 20.8959 187.016C19.6336 189.777 18.7166 192.586 17.9452 195.504C16.8304 199.754 16.0086 204.222 16.5606 208.63L17.2457 212.758C17.9074 215.677 19.1931 218.293 21.1279 220.606C21.4102 221.041 22.9655 219.903 22.6832 219.418C21.0182 217.215 19.9285 214.769 19.4268 212.068C18.9971 210.095 18.7885 208.109 18.8011 206.1C18.5925 203.435 18.8874 200.819 19.6948 198.217C21.3364 190.636 24.5335 183.892 29.2841 177.995C29.7139 177.389 27.1048 177.171 26.8099 177.559L26.8225 177.547Z" fill="white"/>
<path opacity="0.11" d="M28.6349 180.719C26.3818 183.625 24.2025 186.459 22.5734 189.777C20.4175 194.172 19.1193 198.906 18.373 203.714C17.8947 206.729 17.8336 209.453 18.2382 212.468C18.2993 213.837 18.605 215.156 19.1444 216.415C19.6227 218.438 20.5524 220.254 21.9369 221.864C22.0592 222.058 24.875 217.432 24.8139 217.542C25.3048 216.694 27.3259 214.104 27.0795 212.881C26.7505 211.185 26.211 209.478 25.9899 207.771C25.5979 204.766 26.015 201.776 26.9087 198.906C27.9372 195.614 29.0035 192.392 30.5211 189.292C32.4685 185.332 34.9049 182.208 37.8089 178.855C37.4888 178.685 37.1598 178.662 36.7912 178.782C35.5666 178.976 34.3547 179.193 33.1554 179.447C32.2365 179.629 29.3451 179.799 28.6349 180.708V180.719Z" fill="white"/>
<path opacity="0.11" d="M29.0772 178.974C26.8224 181.869 24.6305 184.714 23.0014 188.033C20.8706 192.38 19.5849 197.077 18.8621 201.836C18.4216 204.802 18.373 207.467 18.7902 210.422C18.8621 211.754 19.157 213.037 19.6838 214.26C20.1496 216.246 21.0918 218.026 22.4871 219.574C22.6597 219.841 26.835 214.89 26.7379 214.998C27.7898 213.739 28.8201 212.468 29.8234 211.16C30.1777 210.833 30.3737 210.433 30.4474 209.985C30.1902 208.507 29.7623 206.982 29.64 205.494C29.4188 202.72 30.0446 199.971 30.9383 197.369C32.0027 194.255 33.105 191.217 34.6478 188.31C36.6689 184.509 39.1179 181.469 41.9967 178.224C41.5669 178.006 41.1138 177.945 40.6247 178.03C38.9219 178.066 37.2083 178.139 35.5055 178.249C33.8026 178.333 32.1016 178.454 30.3988 178.612C29.8971 178.587 29.4566 178.697 29.0646 178.962L29.0772 178.974Z" fill="white"/>
<path opacity="0.11" d="M28.9171 180.016C26.6874 182.911 24.5567 185.745 22.9402 189.037C20.7986 193.422 19.5004 198.144 18.7524 202.939C18.2759 205.942 18.2255 208.653 18.6301 211.668C18.7038 213.037 18.9969 214.344 19.5364 215.617C20.0021 217.613 20.9209 219.418 22.2803 221.004C22.4259 221.235 24.839 217.178 24.7779 217.286C25.2184 216.513 26.9086 214.321 26.6767 213.243C26.2973 211.524 25.7453 209.768 25.5133 208.023C25.1087 204.973 25.4881 201.922 26.3692 199.002C27.3743 195.672 28.428 192.428 29.9456 189.304C31.8678 185.345 34.2683 182.208 37.1345 178.83C36.8648 178.649 36.5717 178.599 36.2283 178.685C35.1386 178.781 34.049 178.914 32.9701 179.085C32.1753 179.193 29.5303 179.218 28.9045 180.016H28.9171Z" fill="white"/>
<path opacity="0.11" d="M26.1498 181.904L22.9402 186.397C21.4459 188.831 20.234 191.386 19.3152 194.074C17.5638 198.602 15.9599 203.943 15.9725 208.811C15.9725 211.512 16.1811 214.344 16.8428 216.984C17.6267 220.12 19.0221 222.3 20.8094 225.049C21.018 225.363 22.7568 223.692 22.4026 223.123C19.1444 218.812 17.6753 213.812 18.0061 208.121C18.1644 205.129 18.6661 202.212 19.5112 199.354C20.1243 196.485 21.0666 193.724 22.3288 191.059C23.663 187.839 25.4144 184.847 27.5703 182.088C28.0972 181.312 26.3944 181.567 26.1498 181.917V181.904Z" fill="white"/>
<path opacity="0.11" d="M22.6221 124.814C21.1171 129.452 19.9285 134.016 19.292 138.86C18.5566 144.479 18.4217 150.012 18.3857 155.679C18.3857 155.752 21.7051 153.693 21.6547 153.73C22.0467 153.463 24.6072 152.131 24.6684 151.405C25.0963 146.15 25.4649 140.906 26.346 135.7C27.13 131.098 28.4282 126.909 30.0447 122.513C30.0447 122.489 26.2237 123.458 26.2597 123.446C25.8803 123.567 22.8307 124.16 22.6221 124.814Z" fill="white"/>
<path opacity="0.11" d="M22.8433 125.782C21.3257 130.432 20.1245 135.009 19.4754 139.864C18.7292 145.495 18.5818 151.053 18.5332 156.744C18.5332 156.744 21.3742 154.552 21.3616 154.552C21.8148 154.153 23.8233 152.821 23.8844 152.022C24.3016 146.706 24.6558 141.39 25.5261 136.135C26.2975 131.473 27.6065 127.235 29.2356 122.791C29.2356 122.815 25.954 124.075 25.9414 124.075C25.4523 124.305 23.0752 125.055 22.8433 125.77V125.782Z" fill="white"/>
<path opacity="0.11" d="M20.4302 124.535C18.6914 130.372 17.4921 136.051 16.9401 142.129C16.3898 148.208 16.5607 150.085 16.5984 155.982C16.5984 156.514 17.8841 155.957 17.8841 155.715C17.8967 143.897 18.6914 135.094 21.7896 124.463C21.937 123.978 20.5039 124.269 20.4194 124.535H20.4302Z" fill="white"/>
<path opacity="0.11" d="M20.5416 128.07C19.06 132.78 17.9073 137.406 17.296 142.322C16.5731 148.05 16.4994 153.668 16.5372 159.444C16.5372 159.831 18.2382 158.584 18.2382 158.136C18.2382 152.481 18.3371 146.911 19.0599 141.281C19.6839 136.401 20.8347 131.909 22.3289 127.211C22.4386 126.884 20.6765 127.646 20.5416 128.07Z" fill="white"/>
<path opacity="0.11" d="M22.426 126.182C20.9084 130.831 19.7199 135.421 19.0707 140.288C18.3245 145.931 18.1897 151.501 18.1411 157.192C18.4594 157.119 18.7291 156.962 18.9611 156.708C19.8673 155.957 20.761 155.194 21.6313 154.407C22.1329 153.959 24.7294 152.203 24.8157 151.283C25.2796 146.016 25.659 140.736 26.5545 135.517C27.3493 130.88 28.6853 126.666 30.3251 122.246C30.0069 122.234 29.7012 122.307 29.4189 122.501C28.367 122.985 27.3133 123.481 26.2722 124.002C25.722 124.281 22.6958 125.334 22.426 126.17V126.182Z" fill="white"/>
<path opacity="0.11" d="M22.7695 125.201C21.2519 129.838 20.0759 134.404 19.4268 139.259C18.6788 144.877 18.5439 150.423 18.4954 156.09C18.4954 156.102 21.8632 153.826 21.8399 153.85C22.2678 153.523 24.8391 152.034 24.9002 151.247C25.3534 146.004 25.7328 140.748 26.6156 135.554C27.3996 130.94 28.7212 126.751 30.3503 122.355C30.3503 122.379 26.4682 123.566 26.4682 123.566C26.0276 123.736 22.9781 124.486 22.7461 125.201H22.7695Z" fill="white"/>
<path opacity="0.11" d="M21.3867 127.054C19.8925 131.716 18.7399 136.305 18.1159 141.172C17.3805 146.839 17.2582 152.434 17.2349 158.149C17.2349 158.234 19.2793 156.454 19.2541 156.478C19.6461 156.09 20.9084 155.158 20.957 154.48C21.2519 149.043 21.5198 143.606 22.3163 138.218C23.014 133.483 24.2637 129.173 25.855 124.656C25.8802 124.596 23.4923 125.673 23.5175 125.661C23.0518 125.915 21.5935 126.448 21.3975 127.066L21.3867 127.054Z" fill="white"/>
<path opacity="0.11" d="M21.1045 125.419C19.6462 130.141 18.5206 134.803 17.8966 139.731C17.1738 145.471 17.1001 151.089 17.1234 156.877C17.1234 157.386 18.508 156.659 18.508 156.369C18.508 150.665 18.6302 145.047 19.3783 139.368C20.0148 134.452 21.1404 129.875 22.5987 125.128C22.7335 124.668 21.2016 125.104 21.1045 125.407V125.419Z" fill="white"/>
<path opacity="0.11" d="M22.1454 127.066C20.626 131.728 19.4519 136.317 18.8135 141.185C18.0673 146.839 17.9324 152.434 17.8965 158.137C17.8965 158.076 20.4552 155.776 20.4804 155.739C20.9569 155.231 22.6597 153.887 22.7334 153.027C23.1254 147.663 23.4563 142.311 24.2888 136.995C25.035 132.309 26.3333 128.046 27.9623 123.578C27.9264 123.675 25.0116 125.08 24.9379 125.116C24.3859 125.443 22.4026 126.279 22.158 127.054L22.1454 127.066Z" fill="white"/>
<path opacity="0.11" d="M22.4764 125.686C20.957 130.335 19.781 134.912 19.1319 139.768C18.3857 145.399 18.2508 150.956 18.2148 156.635C18.2148 156.599 21.705 154.105 21.705 154.117C22.1689 153.742 24.8265 152.095 24.9002 151.235C25.366 145.98 25.7454 140.725 26.6282 135.518C27.423 130.892 28.7464 126.691 30.3863 122.295C30.3503 122.392 26.3819 123.76 26.3459 123.785C25.855 123.99 22.7335 124.911 22.489 125.686H22.4764Z" fill="white"/>
<path opacity="0.11" d="M22.4028 126.557C20.8959 131.207 19.7074 135.784 19.0708 140.651C18.3246 146.306 18.2024 151.876 18.1538 157.579C18.1538 157.592 20.4554 155.569 20.4428 155.569C20.8833 155.121 22.3542 154.007 22.4028 153.245C22.7696 147.868 23.0878 142.492 23.9096 137.164C24.6432 132.478 25.9288 128.216 27.5346 123.736C27.5346 123.736 24.8644 124.946 24.8518 124.946C24.3627 125.213 22.6113 125.879 22.3902 126.557H22.4028Z" fill="white"/>
<path opacity="0.11" d="M20.6261 128.543C19.2308 133.229 18.1897 137.854 17.5891 142.71C16.8788 148.449 16.8177 154.08 16.8555 159.868C16.8555 160.304 18.2634 159.25 18.2634 158.887C18.2382 153.196 18.3119 147.589 19.0096 141.935C19.6102 137.128 20.5524 132.635 21.8884 127.961C21.9981 127.586 20.7376 128.228 20.6387 128.555L20.6261 128.543Z" fill="white"/>
<path opacity="0.11" d="M40.3067 96.9271C41.7758 91.8171 44.2141 87.1917 47.6179 83.0384C49.9087 78.2676 53.032 74.1626 57.0112 70.6996C57.6963 70.0094 54.5748 71.5592 55.0153 71.3414C53.8268 71.9226 52.64 72.528 51.464 73.1334C50.8383 73.424 50.2395 73.7752 49.6749 74.1626C45.782 78.4976 44.7283 79.43 41.5438 84.3218C37.9566 89.8313 35.3709 95.6314 32.9956 101.722C33.3139 101.698 33.6088 101.589 33.8659 101.371C34.8459 100.766 35.824 100.148 36.7806 99.5061C37.5035 99.0339 39.9399 97.8957 40.3067 96.915V96.9271Z" fill="white"/>
<path opacity="0.11" d="M40.6753 97.8952C41.605 94.8075 42.8547 91.8651 44.41 89.0558C47.5208 82.4687 51.8794 76.6564 57.4643 71.6314C58.0775 71.0017 55.2239 72.1036 55.5655 71.9825C54.4147 72.3943 53.2765 72.8059 52.1365 73.2418C51.5378 73.4477 50.9498 73.6898 50.3978 74.0047C46.6019 78.146 45.194 79.3204 42.1696 84.1154C38.7154 89.5887 36.0452 95.2797 33.6951 101.298C33.731 101.201 37.2338 99.8325 37.2949 99.7963C37.8703 99.5177 40.3805 98.6822 40.6861 97.8952H40.6753Z" fill="white"/>
<path opacity="0.11" d="M41.5815 95.34C43.5163 89.3341 46.3699 83.7399 50.1171 78.5815C52.5895 75.1669 55.3946 72.0428 58.5179 69.2094C59.1185 68.604 56.9626 69.5728 56.6929 69.8633C52.8719 73.8107 49.4069 77.734 46.4544 82.3352C43.5037 86.9366 41.4089 91.6711 39.4255 96.7447C39.2421 97.2048 40.2455 96.5509 40.1358 96.5993C40.5404 96.3936 41.3963 95.8122 41.5815 95.3521V95.34Z" fill="white"/>
<path opacity="0.11" d="M42.058 98.6221C43.394 93.5123 45.7945 88.9109 49.2343 84.8182C51.5125 80.0474 54.6592 75.9545 58.6762 72.5399C59.1293 72.0919 57.9048 72.104 57.698 72.3098C53.9489 76.1483 50.5199 79.9384 47.6178 84.4185C44.7156 88.8988 42.9157 93.6455 41.1517 98.6947C41.0061 99.1064 41.9483 98.8885 42.0454 98.6221H42.058Z" fill="white"/>
<path opacity="0.11" d="M40.0137 98.4042C41.3245 94.3357 43.0381 90.4367 45.1815 86.7314C48.3156 81.2219 52.2354 76.2817 56.9375 71.9345C56.6444 71.8741 56.3496 71.9103 56.0565 72.0435C55.0154 72.3584 53.9742 72.6974 52.9457 73.0486C51.9783 73.3755 49.8601 73.7508 49.0995 74.5985L44.8506 79.2966C42.7935 81.8516 40.981 84.5519 39.4257 87.4216C36.6943 92.0957 34.5887 96.7575 32.6162 101.807C32.654 101.698 36.3635 100.342 36.412 100.317C36.9767 100.063 39.708 99.2033 40.0137 98.4163V98.4042Z" fill="white"/>
<path opacity="0.11" d="M40.3805 97.3867C41.3119 94.2988 42.549 91.3564 44.1044 88.5351C47.2025 81.9601 51.5252 76.16 57.0975 71.1348C57.7826 70.4446 54.5982 71.8856 55.0153 71.7162C53.7531 72.2609 52.5052 72.818 51.2555 73.3871C50.5938 73.6536 49.9572 73.9805 49.3567 74.3558C45.6094 78.5092 44.1277 79.8289 41.1519 84.612C37.7103 90.1213 35.0419 95.8488 32.6899 101.879C33.0208 101.879 33.3139 101.77 33.5962 101.564C34.6373 101.007 35.6532 100.426 36.6692 99.8325C37.356 99.433 40.0496 98.3311 40.4057 97.3867H40.3805Z" fill="white"/>
<path opacity="0.11" d="M40.7723 98.5009C42.6819 93.5 44.703 88.7776 47.6177 84.2368C50.5325 79.6961 53.8392 76.0633 57.635 72.2492C58.0522 71.8254 56.4842 72.2492 56.6802 72.2128C56.0311 72.3703 54.6969 72.5883 54.206 73.0967L49.9571 77.5285C47.8623 79.9745 46.0264 82.5779 44.4333 85.363C41.6174 89.9521 39.573 94.5534 37.613 99.5785C37.4296 100.039 38.4941 99.5664 38.5193 99.5543C38.9239 99.4211 40.5763 98.9731 40.7597 98.513L40.7723 98.5009Z" fill="white"/>
<path opacity="0.11" d="M41.9484 96.3573C43.2592 92.3008 44.998 88.414 47.1522 84.7208C50.3007 79.2719 54.2313 74.4042 58.946 70.1177C59.3254 69.7303 57.9426 70.2388 58.1386 70.1541C57.5255 70.3963 56.7289 70.7232 56.265 71.1955C52.5285 75.0339 49.1606 78.8966 46.2837 83.4373C43.4049 87.9781 41.3245 92.652 39.3393 97.7014C39.1559 98.1736 40.2096 97.5561 40.1485 97.5924C40.5764 97.3744 41.765 96.8539 41.9484 96.3573Z" fill="white"/>
<path opacity="0.11" d="M40.5763 98.8399C41.4952 95.7764 42.7323 92.834 44.2876 90.049C47.4092 83.4619 51.7696 77.6618 57.3779 72.6487C57.8922 72.1281 55.6643 72.7698 55.8962 72.7093C55.0026 72.9394 54.1089 73.1695 53.2153 73.4358C52.737 73.5448 52.2838 73.7023 51.8559 73.9203C47.7526 78.2793 47.0909 78.6669 43.7482 83.704C40.1717 89.1045 37.6256 94.7593 35.2863 100.753C35.2485 100.85 38.0661 100.002 38.0176 100.014C38.4455 99.8571 40.3552 99.4453 40.5889 98.852L40.5763 98.8399Z" fill="white"/>
<path opacity="0.11" d="M40.0622 97.9197C40.9936 94.8319 42.2307 91.8894 43.7861 89.0804C46.895 82.4931 51.2302 76.681 56.79 71.6438C56.9375 71.4863 56.9986 71.3773 56.7055 71.45C55.7129 71.668 54.7833 72.0917 53.8519 72.4551C52.4925 72.9877 50.1046 73.4601 49.0887 74.5863C45.4025 78.6669 44.018 79.8776 41.0547 84.6242C37.6257 90.1217 34.9429 95.8369 32.5928 101.867C32.8985 101.879 33.1915 101.794 33.4613 101.613C34.4664 101.128 35.4572 100.62 36.4371 100.099C37.0611 99.7723 39.7313 98.7914 40.0622 97.9318V97.9197Z" fill="white"/>
<path opacity="0.11" d="M40.9684 98.3316C42.4375 93.2216 44.8865 88.5962 48.3155 84.455C50.6063 79.6721 53.7656 75.5671 57.7826 72.1283C58.3221 71.5955 55.9953 72.3463 56.265 72.2615C55.2473 72.5522 52.9205 72.867 52.1491 73.6662C48.0584 78.0011 47.3356 78.4612 44.0055 83.4741C40.4056 88.8747 37.8577 94.5536 35.5058 100.56C35.4824 100.62 38.3468 99.6393 38.3234 99.6514C38.7891 99.4578 40.7239 98.9491 40.9684 98.3194V98.3316Z" fill="white"/>
<path opacity="0.11" d="M42.4627 98.9006C43.7843 93.7907 46.1615 89.1895 49.603 85.0966C51.8669 80.3258 55.0154 76.2331 59.0324 72.8306C59.4603 72.3947 58.3347 72.3584 58.1261 72.5522C54.3788 76.3784 50.9624 80.1564 48.071 84.6365C45.1815 89.1168 43.3923 93.8634 41.6428 98.9127C41.4953 99.3244 42.3638 99.1671 42.4627 98.9127V98.9006Z" fill="white"/>
</svg>
