<svg width="96" height="52" viewBox="0 0 96 52" fill="none" xmlns="http://www.w3.org/2000/svg">
<path d="M69.3471 22.7126C69.3471 20.3462 66.9808 18.0723 62.7516 16.3779C58.5242 14.6818 52.7667 13.6969 46.7052 13.6329C40.6456 13.5706 34.7603 14.4312 30.3046 16.0366C25.8471 17.6403 23.1715 19.859 22.8442 22.2219L46.0795 22.7126H69.3471Z" fill="#DDD9D7"/>
<path d="M69.3471 22.7126C69.3471 20.3462 66.9808 18.0723 62.7516 16.3779C58.5242 14.6818 52.7667 13.6969 46.7052 13.6329C40.6456 13.5706 34.7603 14.4312 30.3046 16.0366C25.8471 17.6403 23.1715 19.859 22.8442 22.2219L46.0795 22.7126H69.3471Z" fill="#DDD9D7"/>
<path d="M62.0001 18.739C45.871 10.262 38.3513 16.4011 35.0625 17.3469C3.40849 26.4035 21.3951 27.5787 11.509 24.5865C10.1317 23.1944 1.5223 20.7125 0.76709 18.5328C1.20403 17.6616 2.66409 13.9191 3.63687 13.8356C12.4998 11.2683 31.8834 2.34326 41.0305 5.21279C49.5571 3.63935 48.365 7.10269 51.1017 7.63428C69.563 11.2683 57.8141 11.2683 69.1098 4.12292C98.8327 16.1113 93.4635 18.5328 95.0567 18.739C95.4271 15.4944 79.449 23.3402 70.6203 20.9543" fill="#833D2A"/>
<path d="M24.7845 20.6876C25.288 20.7854 40.3634 26.5866 46.6909 27.5556C55.8757 29.4295 54.4912 20.9543 82.7216 18.5328C81.328 30.7025 63.453 34.5036 50.7313 36.2726C35.3574 38.415 26.6815 32.651 24.2469 33.3533C18.0883 35.133 34.1994 47.9089 10.1658 29.4295C6.59117 26.6933 3.6207 21.4272 0.76709 18.5328C11.6942 21.8379 13.5571 18.5808 24.8007 20.6876H24.7845Z" fill="#DC8F6F"/>
<path d="M95.0568 18.7372C82.7199 31.4278 73.7743 51.4913 52.7795 51.2247C12.4981 43.9602 42.2551 44.6624 50.7314 36.2708C63.4531 34.4911 78.8611 30.9069 73.3049 19.7417C82.3512 18.1682 95.4254 15.4925 95.0568 18.7372Z" fill="#AC5F42"/>
<path d="M69.1117 4.12474C61.173 8.84683 69.5649 13.6898 51.1018 7.63609C48.5179 6.78804 26.2789 13.2667 17.754 14.8401C8.60698 11.9706 4.27529 19.4893 2.43042 14.9006C7.80139 11.2683 10.8222 8.84684 17.5346 6.42535C18.7771 5.97732 38.9843 -5.45456 69.1117 4.12474Z" fill="#C87E61"/>
<path d="M50.7313 36.2726C41.4674 44.1664 80.2365 50.5491 51.1017 51.2265C22.5692 51.2265 19.0107 39.5653 8.8064 28.2205C32.84 46.6982 18.0703 35.133 24.2306 33.3533C26.6635 32.651 35.3412 38.4274 50.7151 36.2726H50.7313Z" fill="#AC5F42"/>
</svg>
