<svg width="2560" height="1400" viewBox="0 0 2560 1400" fill="none" xmlns="http://www.w3.org/2000/svg">
<path d="M2560 0H0V1400H2560V0Z" fill="url(#paint0_linear_1_436)"/>
<path d="M0.0500742 468.485C0.189965 312.353 -0.0598399 156.132 0.0500742 0H2559.97C2560.09 169.501 2559.81 339.092 2559.97 508.583C2526.81 469.395 2517.79 442.476 2462.83 424.733C2411.05 408.021 2358.32 415.437 2315.21 448.43C2238.53 507.112 2277.74 592.413 2276.16 600.639C2262.87 619.883 2261.38 642.589 2247.59 662.613C2217.3 706.615 2203.55 668.438 2151.41 709.096C2145.7 713.54 2127.09 732.964 2123.79 738.267C2123.76 735.165 2115.94 739.578 2110.46 741.91C2115.25 733.494 2051.25 741.63 2051.42 747.374C2039.87 745.402 2010.93 748.825 1995.23 747.374C1965.49 768.139 1910.61 732.763 1921.9 809.348C1851.6 814.702 1842.24 863.887 1820.95 887.734C1811.85 897.921 1796.39 906.257 1790.47 911.431C1778.86 905.877 1781.02 909.4 1774.28 909.61C1717.85 911.401 1713.17 920.678 1663.81 929.664L1606.66 962.477C1584.23 958.775 1558.18 963.648 1541.91 962.477C1518 960.756 1489.2 950.729 1472.38 951.54C1469.22 951.69 1462.37 954.202 1459.05 955.182C1446.38 958.935 1451.84 958.705 1449.53 960.646C1449.05 961.056 1445.49 959.605 1445.72 962.467C1401.29 943.644 1410.46 948.237 1374.3 940.592C1365.07 938.64 1354.91 933.397 1343.82 931.475C1334.21 929.814 1319.02 931.906 1305.73 929.654C1304.53 929.454 1294.63 919.887 1283.83 924.19C1260.34 901.154 1237.4 905.727 1207.64 898.672C1204.77 897.991 1199.78 899.402 1197.16 898.672C1185.85 895.54 1175.18 876.176 1106.7 882.27C1095.11 858.153 1093.14 830.163 1062.89 816.643C1059.1 805.185 1085.14 821.447 1104.8 822.107C1105.48 833.515 1128.73 824.319 1138.13 822.107C1147.88 833.695 1178.3 816.483 1214.32 825.75C1238.64 842.071 1245.01 836.117 1246.71 836.688C1278.38 847.395 1259.79 849.036 1259.09 854.01C1258.86 855.641 1279.44 874.274 1280.99 874.975C1282.5 875.655 1308.34 874.545 1310.52 885.002C1311.78 891.056 1278.66 891.006 1296.23 896.851C1299.59 897.971 1341.64 887.614 1355.27 904.146C1356.7 904.346 1380.05 900.073 1383.84 900.503C1384.77 900.603 1386.34 904.956 1400.03 905.967C1407.68 906.538 1434.42 909.87 1436.22 909.61C1438.44 921.959 1495.11 897.871 1486.69 895.029C1425.46 901.144 1400.06 845.264 1330.5 865.858C1310.71 844.603 1285.54 830.233 1257.17 822.107C1212.31 809.258 1180.01 813.731 1135.26 816.643C1101.29 793.237 1050.26 792.606 1012.41 772.892C1010.48 771.891 1008.78 774.823 1008.6 774.713C997.271 768.009 983.232 741.47 964.796 736.436C925.727 725.758 932.811 764.966 881.941 725.498C880.552 699.49 883.91 687.811 862.896 657.139C829.812 608.855 775.944 601.68 721.946 617.951C721.097 618.212 711.944 617.741 711.474 617.951C709.926 618.632 691.08 636.094 686.714 638.006C685.634 638.476 672.295 633.032 674.333 639.827C660.964 640.037 649.643 655.318 636.243 650.765C628.689 649.294 610.373 624.246 567.677 635.274C560.422 644.17 624.093 659.891 626.721 698.159C603.938 690.723 579.288 687.991 556.246 681.757C547.442 668.638 542.316 630.52 523.861 627.068C534.373 617.291 510.431 604.222 493.385 607.014C477.217 541.937 418.024 498.406 347.678 519.511C344.501 520.462 336.877 526.186 335.298 526.806C318.561 533.371 305.541 539.675 291.492 550.503C244.189 586.929 267.471 613.878 219.109 607.014C177.611 570.127 115.42 572.389 67.6872 596.076C60.6327 593.204 60.5328 509.344 0.0700586 468.475L0.0500742 468.485Z" fill="url(#paint1_linear_1_436)"/>
<path d="M1222.86 1399.98C1211.46 1399.98 1199.98 1399.98 1188.58 1399.98C1177.06 1392.74 1213.85 1398.08 1222.86 1399.98Z" fill="#66504B"/>
<path d="M1370.48 627.078C1388.26 624.936 1400.37 630.4 1414.29 639.837C1428.79 661.473 1404.88 630.34 1383.81 628.899C1370.46 627.989 1335.26 643.49 1353.33 632.542C1354.09 632.082 1369.58 627.178 1370.48 627.078Z" fill="#F6ECCC"/>
<defs>
<linearGradient id="paint0_linear_1_436" x1="1209.03" y1="-186.514" x2="1475.95" y2="1389.98" gradientUnits="userSpaceOnUse">
<stop stop-color="#789195"/>
<stop offset="0.21" stop-color="#C2C0A9"/>
<stop offset="0.42" stop-color="#EBCE9F"/>
<stop offset="0.65" stop-color="#F2DCAD"/>
<stop offset="0.82" stop-color="#C9CAAE"/>
<stop offset="0.94" stop-color="#E1D3A4"/>
<stop offset="1" stop-color="#C3C5A4"/>
</linearGradient>
<linearGradient id="paint1_linear_1_436" x1="1237.41" y1="-131.554" x2="1365.83" y2="968.167" gradientUnits="userSpaceOnUse">
<stop stop-color="#789195"/>
<stop offset="0.21" stop-color="#C2C0A9"/>
<stop offset="0.42" stop-color="#EBCE9F"/>
<stop offset="0.65" stop-color="#F2DCAD"/>
<stop offset="0.82" stop-color="#C9CAAE"/>
<stop offset="0.94" stop-color="#E1D3A4"/>
<stop offset="1" stop-color="#C3C5A4"/>
</linearGradient>
</defs>
</svg>
