<svg width="109" height="47" viewBox="0 0 109 47" fill="none" xmlns="http://www.w3.org/2000/svg">
<path d="M28.1611 18.6671C28.7005 18.7648 47.6095 21.5864 54.5286 21.5864C59.9176 21.5864 59.9536 18.9586 90.1529 16.3309C88.6713 29.5282 69.5303 33.6458 55.924 35.5713C39.4784 37.8968 30.1822 31.6368 27.5749 32.3995C20.974 34.3356 38.2287 48.189 12.4995 28.1486C8.68928 25.1813 3.70492 18.1585 0.644531 15.0223C12.3269 18.6066 16.1353 16.3914 28.1611 18.6671Z" fill="#DC8F6F"/>
<path d="M63.5048 21.5863C56.316 25.5208 50.8551 23.9225 47.3397 22.8931C29.3748 17.6376 32.9746 21.5863 22.1985 21.5863C18.6095 21.5863 1.46447 17.3834 0.644531 15.0223C1.11024 14.0783 6.278 15.2642 7.30652 15.1806C16.8096 12.3946 37.5418 2.71934 47.3397 5.83243C56.476 4.12388 55.1903 7.87879 58.1159 8.46016C77.87 12.3946 65.3047 12.3946 77.3809 4.65723C109.197 17.6501 106.697 16.1122 108.4 16.3415C101.211 25.5333 85.0229 20.7134 79.6573 20.2778" fill="#833D2A"/>
<path d="M106.613 17.6501C93.411 31.4057 78.7761 46.82 56.3159 46.5303C13.2097 38.6595 45.0489 39.4222 54.124 30.3159C67.7303 28.3904 79.6698 36.0193 86.8587 21.5864C96.5451 19.8778 90.4477 20.2779 106.613 17.6501Z" fill="#AC5F42"/>
<path d="M77.3936 4.65729C68.9065 9.7794 77.8827 15.0224 58.1286 8.46022C55.3613 7.53927 31.5669 14.562 22.4432 16.2705C12.6453 13.1574 18.6222 15.0224 0.657227 15.0224C7.84609 13.7156 15.0224 9.76699 22.2113 7.1517C23.5455 6.66812 45.1732 -5.73095 77.4044 4.65729H77.3936Z" fill="#C87E61"/>
<path d="M54.5286 30.7763C44.6084 39.3369 85.6953 45.803 54.5286 46.5302C23.9984 46.5302 15.157 31.2599 4.23169 18.9586C29.9627 38.9973 15.585 27.7734 22.1859 25.8355C24.7824 25.0728 38.0812 33.1018 54.5286 30.7763Z" fill="#AC5F42"/>
</svg>
